<?xml version="1.0" standalone="no"?>
<!DOCTYPE svg PUBLIC "-//W3C//DTD SVG 1.1//EN" "http://www.w3.org/Graphics/SVG/1.1/DTD/svg11.dtd" >
<svg xmlns="http://www.w3.org/2000/svg" xmlns:xlink="http://www.w3.org/1999/xlink" version="1.1">
<metadata>
Created by FontForge 20161116 at Thu Jan 14 22:31:01 2016
 By Jimmy Wärting
Copyright C 2016 Hoefler &#38; Co. http:www.typography.com
</metadata>
<defs>
<font id="OperatorMono-BookItalic" horiz-adv-x="550" >
  <font-face 
    font-family="Operator Mono"
    font-weight="325"
    font-style="italic"
    font-stretch="normal"
    units-per-em="1000"
    panose-1="2 0 0 9 0 0 0 0 0 0"
    ascent="800"
    descent="-200"
    x-height="489"
    cap-height="620"
    bbox="-70 -371 717 1130"
    underline-thickness="64"
    underline-position="-83"
    slope="-11"
    stemh="68"
    stemv="82"
    unicode-range="U+0020-E10D"
  />
<missing-glyph 
d="M8 -200l-15 1000h540l15 -1000h-540zM70 750l199 -390l188 390h-387zM481 676l-180 -376l191 -376zM60 -76l180 376l-191 376zM271 240l-187 -390h387z" />
    <glyph glyph-name=".notdef" 
d="M8 -200l-15 1000h540l15 -1000h-540zM70 750l199 -390l188 390h-387zM481 676l-180 -376l191 -376zM60 -76l180 376l-191 376zM271 240l-187 -390h387z" />
    <glyph glyph-name="NUL" horiz-adv-x="0" 
 />
    <glyph glyph-name="space" unicode=" " 
 />
    <glyph glyph-name="A" unicode="A" 
d="M390 -3c-5 64 -9 128 -14 192h-211c-29 -63 -58 -126 -86 -189h-82c95 207 196 415 300 622h114c22 -206 42 -412 59 -619zM337 551c-49 -99 -96 -200 -143 -300h177c-8 100 -17 201 -27 300h-7z" />
    <glyph glyph-name="B" unicode="B" 
d="M488 188c0 -112 -117 -226 -438 -188l120 618c246 36 349 -32 349 -127c0 -76 -60 -140 -160 -171c78 -16 129 -67 129 -132zM440 473c0 62 -65 101 -201 86l-44 -225c173 8 245 70 245 139zM409 182c0 68 -65 113 -223 103l-42 -219c183 -21 265 40 265 116z" />
    <glyph glyph-name="C" unicode="C" 
d="M377 633c114 0 147 -79 140 -231l-76 -1c2 106 -9 160 -80 160c-123 0 -215 -168 -215 -324c0 -170 108 -218 314 -142l-8 -73c-244 -87 -387 -8 -387 201c0 212 138 410 312 410z" />
    <glyph glyph-name="D" unicode="D" 
d="M522 384c0 -228 -147 -427 -479 -384l120 618c233 39 359 -40 359 -234zM441 375c0 139 -72 197 -209 182l-96 -493c206 -17 305 135 305 311z" />
    <glyph glyph-name="E" unicode="E" 
d="M443 69l-18 -69h-367l120 620h370l-14 -69h-288l-40 -207h244l-12 -61h-244l-42 -214h291z" />
    <glyph glyph-name="F" unicode="F" 
d="M447 268h-254l-52 -268h-81l120 620h380l-12 -70h-300l-43 -219h254z" />
    <glyph glyph-name="G" unicode="G" 
d="M403 -109l-73 -1l26 114c-183 -51 -292 32 -292 215c0 215 138 414 303 414c110 0 148 -74 141 -231h-76c3 104 -10 159 -78 159c-119 0 -208 -170 -208 -329c0 -151 79 -205 226 -156l37 164l77 3z" />
    <glyph glyph-name="H" unicode="H" 
d="M349 0l55 282h-228l-55 -282h-81l120 620h81l-53 -274h228l53 274h82l-120 -620h-82z" />
    <glyph glyph-name="I" unicode="I" 
d="M277 65h150l-15 -65h-376l13 65h147l95 490h-150l13 65h375l-12 -65h-145z" />
    <glyph glyph-name="J" unicode="J" 
d="M353 50c-42 -42 -126 -62 -313 -61l13 74c154 -2 209 2 236 30c19 19 28 50 54 180l55 282h-205l14 65h285l-66 -338c-32 -171 -46 -205 -73 -232z" />
    <glyph glyph-name="K" unicode="K" 
d="M394 -6l-181 318l282 308h88l-281 -309l178 -306zM170 620h81l-121 -620h-81z" />
    <glyph glyph-name="L" unicode="L" 
d="M446 0h-385l120 620h82l-106 -550h304z" />
    <glyph glyph-name="M" unicode="M" 
d="M245 622l29 -413h3l192 411h96l-119 -620h-78l98 488h-4l-180 -380h-53l-28 380h-3l-91 -488h-74l119 618z" />
    <glyph glyph-name="N" unicode="N" 
d="M355 0l-142 489h-5l-92 -489h-76l120 619l85 2l136 -480h5l91 479h76l-121 -620h-77z" />
    <glyph glyph-name="O" unicode="O" 
d="M350 632c106 0 180 -76 180 -233c0 -208 -121 -411 -290 -411c-106 0 -180 75 -180 232c0 208 121 412 290 412zM251 58c115 0 195 171 195 337c0 113 -42 167 -107 167c-115 0 -195 -171 -195 -337c0 -113 42 -167 107 -167z" />
    <glyph glyph-name="P" unicode="P" 
d="M133 0h-81l120 617c264 36 369 -45 369 -160c0 -141 -136 -236 -369 -258zM462 444c0 78 -70 127 -221 110l-55 -280c179 -3 276 68 276 170z" />
    <glyph glyph-name="Q" unicode="Q" 
d="M415 -138l-285 126l20 58c177 71 300 223 300 373c0 94 -43 145 -120 145c-130 0 -221 -176 -153 -427l-69 -26c-99 275 29 522 236 522c125 0 189 -85 189 -209c0 -168 -129 -320 -295 -403l211 -93z" />
    <glyph glyph-name="R" unicode="R" 
d="M401 -6l-163 283l1 3c142 63 200 115 200 185c0 69 -67 105 -203 89l-108 -554h-80l120 618c258 34 352 -38 352 -137c0 -91 -70 -158 -187 -215l156 -260z" />
    <glyph glyph-name="S" unicode="S" 
d="M512 460l-72 -14c-14 82 -52 117 -119 117c-68 0 -116 -48 -116 -104c0 -115 256 -175 256 -314c0 -101 -121 -197 -432 -131l16 80c250 -64 333 -17 333 44c0 102 -255 166 -255 311c0 95 90 182 217 182c103 0 156 -60 172 -171z" />
    <glyph glyph-name="T" unicode="T" 
d="M375 550l-107 -550h-81l107 550h-192l13 70h465l-13 -70h-192z" />
    <glyph glyph-name="U" unicode="U" 
d="M160 221c-23 -114 12 -164 93 -164c72 0 118 45 137 143l82 420h81l-82 -418c-28 -147 -110 -216 -227 -216c-129 0 -196 76 -166 234l78 400h81z" />
    <glyph glyph-name="V" unicode="V" 
d="M284 0h-114c-26 207 -46 411 -61 617l80 6c12 -181 30 -367 48 -549h8c91 182 180 364 263 546h81c-95 -206 -198 -413 -305 -620z" />
    <glyph glyph-name="W" unicode="W" 
d="M324 0l-23 327l-149 -327h-85c5 118 29 354 68 620h80c-19 -125 -66 -453 -71 -515h4l151 331h49l23 -331h3c19 62 99 390 128 515h78c-64 -267 -131 -503 -170 -620h-86z" />
    <glyph glyph-name="X" unicode="X" 
d="M383 -3l-104 258l-193 -255h-87l247 315l-128 302l82 6l106 -259l192 256h89l-248 -315l128 -302z" />
    <glyph glyph-name="Y" unicode="Y" 
d="M269 0h-81l40 209l-123 409l83 4l97 -336l222 334h87l-286 -417z" />
    <glyph glyph-name="Z" unicode="Z" 
d="M437 0h-414l12 69l414 481l-314 -1l14 71h403l-12 -69l-411 -481l321 1z" />
    <glyph glyph-name="a" unicode="a" 
d="M193 63c42 0 106 41 155 90c10 51 37 188 52 264c-36 11 -71 16 -94 16c-98 0 -177 -135 -177 -272c0 -69 28 -98 64 -98zM513 37c-146 -86 -185 -45 -173 58c-59 -58 -130 -105 -186 -105c-60 0 -104 50 -104 153c0 183 121 357 298 357c42 0 89 -7 140 -21l-69 -352
c-14 -69 -8 -85 86 -50z" />
    <glyph glyph-name="b" unicode="b" 
d="M201 -10c-44 0 -99 10 -147 24l133 683l77 6l-59 -302c58 55 128 101 183 101c64 0 111 -54 111 -164c0 -180 -121 -348 -298 -348zM242 56c99 0 179 130 179 263c0 77 -32 111 -70 111c-45 0 -110 -43 -158 -93l-51 -264c39 -11 75 -17 100 -17z" />
    <glyph glyph-name="c" unicode="c" 
d="M493 334h-72c-1 74 -24 100 -77 100c-108 0 -196 -115 -196 -245c0 -128 92 -166 301 -100l10 -42c-253 -123 -389 -34 -389 129c0 171 136 325 294 325c92 0 134 -49 129 -167z" />
    <glyph glyph-name="d" unicode="d" 
d="M197 63c44 0 105 38 151 86l53 270c-38 11 -74 17 -97 17c-97 0 -176 -132 -176 -264c0 -74 30 -109 69 -109zM517 38c-146 -85 -187 -47 -177 52c-56 -56 -126 -100 -181 -100c-62 0 -109 54 -109 162c0 180 119 349 293 349c22 0 46 -2 73 -6l39 202l78 6l-112 -574
c-14 -72 -8 -88 87 -52z" />
    <glyph glyph-name="e" unicode="e" 
d="M470 56c-266 -136 -408 -46 -408 118c0 155 127 328 296 328c86 0 139 -45 139 -117c0 -114 -129 -183 -359 -200v-1c0 -129 95 -162 322 -87zM339 437c-106 0 -180 -102 -197 -206c170 12 280 57 280 139c0 40 -32 67 -83 67z" />
    <glyph glyph-name="f" unicode="f" 
d="M403 2c0 -107 -85 -181 -176 -181c-85 0 -152 71 -152 229c0 67 11 137 30 206l-37 16l11 47h46c73 208 216 386 349 386c109 0 129 -121 -2 -257l-33 17c77 91 67 158 6 158c-88 0 -188 -137 -246 -304h296l-12 -64l-251 4c120 -91 171 -180 171 -257zM255 -115
c51 0 93 39 93 102c0 75 -52 160 -174 247c-15 -60 -23 -121 -23 -179c0 -127 48 -170 104 -170z" />
    <glyph glyph-name="g" unicode="g" 
d="M211 96c48 0 100 37 144 104c9 71 31 149 54 207c-39 20 -75 29 -102 29c-100 0 -173 -124 -173 -239c0 -69 33 -101 77 -101zM422 -82c-31 -62 -140 -102 -377 -88l8 76c194 -16 278 3 298 24c25 24 3 98 1 201c-49 -61 -112 -107 -177 -107c-68 0 -119 51 -119 154
c0 165 118 323 283 323c36 0 70 -8 104 -24c10 16 19 25 26 25c20 0 52 -13 52 -28c0 -35 -45 -159 -97 -260c-1 -17 -2 -33 -2 -46c0 -130 25 -200 0 -250z" />
    <glyph glyph-name="h" unicode="h" 
d="M514 36c-120 -74 -177 -52 -177 14c0 77 65 241 65 321c0 37 -16 57 -50 57c-43 0 -101 -35 -166 -105l-63 -323h-76l135 697l78 6l-61 -314c70 75 139 112 200 112c63 0 86 -41 86 -93c0 -99 -67 -269 -67 -326c0 -27 13 -34 85 -5z" />
    <glyph glyph-name="i" unicode="i" 
d="M370 574l-81 -4l31 133l90 5zM473 44c-247 -101 -331 -55 -293 88l76 289l-177 -24l-5 42l206 51l69 -1l-90 -344c-23 -90 3 -109 205 -58z" />
    <glyph glyph-name="j" unicode="j" 
d="M430 574l-82 -4l33 135l90 4zM2 -173l5 76c187 -4 212 -1 231 18c38 38 -6 179 77 502l-189 -18l-7 41l219 45l71 -1c-113 -386 -49 -547 -116 -613c-37 -37 -96 -49 -291 -50z" />
    <glyph glyph-name="k" unicode="k" 
d="M403 -6l-180 204c162 84 209 147 209 189c0 27 -18 42 -48 42c-49 0 -118 -39 -192 -114l-61 -315h-77l135 697l78 6l-62 -320c77 78 157 118 220 118c58 0 91 -33 91 -82c0 -65 -56 -140 -201 -218l177 -195z" />
    <glyph glyph-name="l" unicode="l" 
d="M463 65c-186 -111 -309 -97 -333 52c-20 -12 -42 -26 -48 -30l-21 36c9 6 42 27 64 42v13c0 272 173 528 314 528c59 0 94 -38 94 -104c0 -119 -96 -274 -328 -440c11 -126 91 -130 243 -57zM412 629c-84 0 -200 -194 -208 -413c186 146 255 271 255 353
c0 40 -19 60 -47 60z" />
    <glyph glyph-name="m" unicode="m" 
d="M526 21c-97 -48 -139 -37 -139 16c0 67 68 283 68 355c0 21 -7 34 -25 34c-22 0 -54 -18 -90 -56l-72 -370h-61l68 346c10 50 8 80 -20 80c-22 0 -53 -18 -89 -55c-20 -110 -55 -290 -71 -371h-75c46 233 67 343 91 487l71 5c-1 -13 -5 -42 -9 -64c44 49 85 73 118 73
c38 0 58 -28 55 -80c48 53 94 80 131 80s58 -24 58 -70c0 -93 -72 -310 -72 -363c0 -19 11 -22 53 -6z" />
    <glyph glyph-name="n" unicode="n" 
d="M514 36c-120 -74 -177 -52 -177 14c0 77 65 240 65 321c0 37 -16 57 -50 57c-42 0 -100 -33 -164 -98c-11 -62 -51 -261 -65 -330h-76c45 233 67 343 89 488l76 5c-3 -17 -10 -65 -15 -103c70 73 141 111 202 111c63 0 86 -41 86 -93c0 -99 -67 -269 -67 -326
c0 -27 13 -34 85 -5z" />
    <glyph glyph-name="o" unicode="o" 
d="M54 188c0 172 114 314 263 314c108 0 180 -71 180 -200c0 -174 -116 -313 -264 -313c-109 0 -179 70 -179 199zM417 291c0 92 -41 146 -113 146c-102 0 -171 -112 -171 -238c0 -92 41 -145 113 -145c101 0 171 110 171 237z" />
    <glyph glyph-name="p" unicode="p" 
d="M241 55c101 0 180 131 180 263c0 75 -31 110 -70 110c-45 0 -111 -43 -159 -92c-9 -48 -29 -156 -50 -264c39 -11 75 -17 99 -17zM95 -170l-77 -6c63 327 98 502 123 664l75 5c-2 -15 -9 -62 -15 -97c58 58 130 106 187 106c62 0 110 -55 110 -164
c0 -180 -120 -349 -296 -349c-23 0 -48 2 -75 7c-13 -66 -24 -127 -32 -166z" />
    <glyph glyph-name="q" unicode="q" 
d="M502 -132c-159 -83 -208 -56 -187 57l30 159c-56 -53 -124 -94 -179 -94c-64 0 -114 54 -114 163c0 181 121 348 301 348c44 0 100 -11 146 -25l-105 -530c-11 -61 -4 -69 99 -37zM202 62c45 0 107 38 155 84l53 273c-38 11 -76 17 -102 17c-102 0 -179 -131 -179 -264
c0 -75 33 -110 73 -110z" />
    <glyph glyph-name="r" unicode="r" 
d="M507 29c-216 -96 -287 -23 -116 375c-55 -16 -111 -26 -158 -27c-34 -70 -93 -151 -158 -220l-31 29c61 73 104 133 133 196c-30 7 -49 22 -49 46c0 41 50 96 98 96c23 0 38 -16 38 -44c0 -12 -2 -25 -6 -39c61 7 135 27 199 56l37 -21c-174 -424 -144 -454 6 -405z" />
    <glyph glyph-name="s" unicode="s" 
d="M463 130c0 -78 -73 -151 -344 -137l2 72c216 -18 265 13 265 60c0 54 -77 119 -121 194c-43 -37 -100 -78 -172 -121l-21 36c84 58 136 99 170 136c-4 14 -6 28 -6 43c0 60 54 118 104 118c56 0 69 -60 -13 -153c31 -78 136 -165 136 -248z" />
    <glyph glyph-name="t" unicode="t" 
d="M459 52c-255 -129 -340 -47 -303 113l58 262h-93l16 61h63l77 138l60 5l-32 -143h189l-12 -61h-191l-58 -258c-25 -109 9 -147 218 -76z" />
    <glyph glyph-name="u" unicode="u" 
d="M519 37c-146 -85 -187 -47 -169 67c-66 -76 -125 -115 -184 -115c-73 0 -110 58 -81 184l37 166l-43 26l75 123l78 5l-70 -312c-19 -85 0 -118 43 -118c45 0 96 36 158 108l62 319h76l-71 -363c-14 -69 -9 -86 80 -50z" />
    <glyph glyph-name="v" unicode="v" 
d="M246 77c79 138 152 276 224 413h82c-86 -161 -182 -333 -277 -494h-99c-33 164 -62 329 -84 491l78 5c19 -137 42 -276 68 -415h8z" />
    <glyph glyph-name="w" unicode="w" 
d="M324 0l-40 264l-141 -264h-76c4 117 20 306 45 489h79c-22 -139 -36 -257 -53 -390h3l140 267h49l38 -268h4c36 137 66 254 97 391h82c-44 -162 -90 -309 -153 -489h-74z" />
    <glyph glyph-name="x" unicode="x" 
d="M366 -2l-105 201l-179 -199h-85l225 245l-129 242l85 5l107 -201l178 199h85l-225 -244l129 -243z" />
    <glyph glyph-name="y" unicode="y" 
d="M419 -82c-31 -62 -133 -101 -365 -89l11 78c188 -16 266 2 287 22c24 25 13 99 11 209c-56 -61 -131 -111 -200 -111c-93 0 -149 91 -10 462l76 2c-118 -328 -87 -393 -26 -393c43 0 106 39 161 101c9 136 71 300 101 300c21 0 54 -10 54 -26c0 -37 -38 -171 -88 -269
c-1 -9 -1 -18 -1 -28c0 -114 16 -205 -11 -258z" />
    <glyph glyph-name="z" unicode="z" 
d="M426 0h-395l13 66l372 357l-300 -2l19 69h384l-13 -66l-372 -357l311 2z" />
    <glyph glyph-name="Aacute" unicode="&#xc1;" 
d="M248 725c65 39 159 113 216 169l55 -63c-67 -51 -180 -109 -255 -141zM390 -3c-5 64 -9 128 -14 192h-211c-29 -63 -58 -126 -86 -189h-82c95 207 196 415 300 622h114c22 -206 42 -412 59 -619zM337 551c-49 -99 -96 -200 -143 -300h177c-8 100 -17 201 -27 300h-7z" />
    <glyph glyph-name="aacute" unicode="&#xe1;" 
d="M240 603c65 39 159 113 216 169l55 -63c-67 -51 -180 -109 -255 -141zM193 63c42 0 106 41 155 90c10 51 37 188 52 264c-36 11 -71 16 -94 16c-98 0 -177 -135 -177 -272c0 -69 28 -98 64 -98zM513 37c-146 -86 -185 -45 -173 58c-59 -58 -130 -105 -186 -105
c-60 0 -104 50 -104 153c0 183 121 357 298 357c42 0 89 -7 140 -21l-69 -352c-14 -69 -8 -85 86 -50z" />
    <glyph glyph-name="Abreve" unicode="&#x102;" 
d="M537 869l45 -28c-69 -91 -141 -144 -212 -144c-68 0 -121 47 -159 146l60 31c34 -82 66 -114 115 -114c52 0 95 40 151 109zM390 -3c-5 64 -9 128 -14 192h-211c-29 -63 -58 -126 -86 -189h-82c95 207 196 415 300 622h114c22 -206 42 -412 59 -619zM337 551
c-49 -99 -96 -200 -143 -300h177c-8 100 -17 201 -27 300h-7z" />
    <glyph glyph-name="abreve" unicode="&#x103;" 
d="M529 747l45 -28c-69 -91 -141 -144 -212 -144c-68 0 -121 47 -159 146l60 31c34 -82 66 -114 115 -114c52 0 95 40 151 109zM193 63c42 0 106 41 155 90c10 51 37 188 52 264c-36 11 -71 16 -94 16c-98 0 -177 -135 -177 -272c0 -69 28 -98 64 -98zM513 37
c-146 -86 -185 -45 -173 58c-59 -58 -130 -105 -186 -105c-60 0 -104 50 -104 153c0 183 121 357 298 357c42 0 89 -7 140 -21l-69 -352c-14 -69 -8 -85 86 -50z" />
    <glyph glyph-name="Acircumflex" unicode="&#xc2;" 
d="M496 690l-101 115l-158 -111l-35 41l205 147h4l139 -150zM390 -3c-5 64 -9 128 -14 192h-211c-29 -63 -58 -126 -86 -189h-82c95 207 196 415 300 622h114c22 -206 42 -412 59 -619zM337 551c-49 -99 -96 -200 -143 -300h177c-8 100 -17 201 -27 300h-7z" />
    <glyph glyph-name="acircumflex" unicode="&#xe2;" 
d="M487 568l-101 115l-158 -111l-35 41l205 147h4l139 -150zM193 63c42 0 106 41 155 90c10 51 37 188 52 264c-36 11 -71 16 -94 16c-98 0 -177 -135 -177 -272c0 -69 28 -98 64 -98zM513 37c-146 -86 -185 -45 -173 58c-59 -58 -130 -105 -186 -105
c-60 0 -104 50 -104 153c0 183 121 357 298 357c42 0 89 -7 140 -21l-69 -352c-14 -69 -8 -85 86 -50z" />
    <glyph glyph-name="Adieresis" unicode="&#xc4;" 
d="M510 705l-81 -1l31 132l90 2zM295 703l-81 -1l32 132l89 1zM390 -3c-5 64 -9 128 -14 192h-211c-29 -63 -58 -126 -86 -189h-82c95 207 196 415 300 622h114c22 -206 42 -412 59 -619zM337 551c-49 -99 -96 -200 -143 -300h177c-8 100 -17 201 -27 300h-7z" />
    <glyph glyph-name="adieresis" unicode="&#xe4;" 
d="M502 583l-81 -1l31 132l90 2zM287 581l-81 -1l32 132l89 1zM193 63c42 0 106 41 155 90c10 51 37 188 52 264c-36 11 -71 16 -94 16c-98 0 -177 -135 -177 -272c0 -69 28 -98 64 -98zM513 37c-146 -86 -185 -45 -173 58c-59 -58 -130 -105 -186 -105
c-60 0 -104 50 -104 153c0 183 121 357 298 357c42 0 89 -7 140 -21l-69 -352c-14 -69 -8 -85 86 -50z" />
    <glyph glyph-name="Agrave" unicode="&#xc0;" 
d="M489 717l-20 -33c-63 33 -162 100 -220 153l53 62c50 -59 130 -138 187 -182zM390 -3c-5 64 -9 128 -14 192h-211c-29 -63 -58 -126 -86 -189h-82c95 207 196 415 300 622h114c22 -206 42 -412 59 -619zM337 551c-49 -99 -96 -200 -143 -300h177c-8 100 -17 201 -27 300
h-7z" />
    <glyph glyph-name="agrave" unicode="&#xe0;" 
d="M481 595l-20 -33c-63 33 -162 100 -220 153l53 62c50 -59 130 -138 187 -182zM193 63c42 0 106 41 155 90c10 51 37 188 52 264c-36 11 -71 16 -94 16c-98 0 -177 -135 -177 -272c0 -69 28 -98 64 -98zM513 37c-146 -86 -185 -45 -173 58c-59 -58 -130 -105 -186 -105
c-60 0 -104 50 -104 153c0 183 121 357 298 357c42 0 89 -7 140 -21l-69 -352c-14 -69 -8 -85 86 -50z" />
    <glyph glyph-name="Amacron" unicode="&#x100;" 
d="M555 805l-13 -66h-330l13 66h330zM390 -3c-5 64 -9 128 -14 192h-211c-29 -63 -58 -126 -86 -189h-82c95 207 196 415 300 622h114c22 -206 42 -412 59 -619zM337 551c-49 -99 -96 -200 -143 -300h177c-8 100 -17 201 -27 300h-7z" />
    <glyph glyph-name="amacron" unicode="&#x101;" 
d="M546 683l-13 -66h-330l13 66h330zM193 63c42 0 106 41 155 90c10 51 37 188 52 264c-36 11 -71 16 -94 16c-98 0 -177 -135 -177 -272c0 -69 28 -98 64 -98zM513 37c-146 -86 -185 -45 -173 58c-59 -58 -130 -105 -186 -105c-60 0 -104 50 -104 153
c0 183 121 357 298 357c42 0 89 -7 140 -21l-69 -352c-14 -69 -8 -85 86 -50z" />
    <glyph glyph-name="Aogonek" unicode="&#x104;" 
d="M440 -167c-148 -76 -227 -36 -227 26c-1 47 51 102 176 154c-4 59 -9 117 -13 176h-211c-29 -63 -58 -126 -86 -189h-82c95 207 196 415 300 622h114c22 -206 42 -412 59 -619c-132 -43 -184 -87 -184 -122c0 -33 41 -50 144 -11zM337 551c-49 -99 -96 -200 -143 -300
h177c-8 100 -17 201 -27 300h-7z" />
    <glyph glyph-name="aogonek" unicode="&#x105;" 
d="M473 -167c-148 -75 -227 -34 -227 26c0 45 36 93 125 145c-28 10 -37 40 -31 91c-59 -58 -130 -105 -186 -105c-60 0 -104 50 -104 153c0 183 121 357 298 357c42 0 89 -7 140 -21l-69 -352c-14 -69 -8 -85 86 -50l8 -40c-141 -64 -194 -113 -194 -155
c0 -34 41 -50 145 -11zM193 63c42 0 106 41 155 90c10 51 37 188 52 264c-36 11 -71 16 -94 16c-98 0 -177 -135 -177 -272c0 -69 28 -98 64 -98z" />
    <glyph glyph-name="Aring" unicode="&#xc5;" 
d="M393 889c74 0 125 -44 125 -98c0 -60 -59 -112 -140 -112c-74 0 -125 44 -125 99c0 61 59 111 140 111zM390 -3c-5 64 -9 128 -14 192h-211c-29 -63 -58 -126 -86 -189h-82c95 207 196 415 300 622h114c22 -206 42 -412 59 -619zM337 551c-49 -99 -96 -200 -143 -300h177
c-8 100 -17 201 -27 300h-7z" />
    <glyph glyph-name="aring" unicode="&#xe5;" 
d="M384 767c74 0 125 -44 125 -98c0 -60 -59 -112 -140 -112c-74 0 -125 44 -125 99c0 61 59 111 140 111zM193 63c42 0 106 41 155 90c10 51 37 188 52 264c-36 11 -71 16 -94 16c-98 0 -177 -135 -177 -272c0 -69 28 -98 64 -98zM513 37c-146 -86 -185 -45 -173 58
c-59 -58 -130 -105 -186 -105c-60 0 -104 50 -104 153c0 183 121 357 298 357c42 0 89 -7 140 -21l-69 -352c-14 -69 -8 -85 86 -50z" />
    <glyph glyph-name="Aringacute" unicode="&#x1fa;" 
d="M308 961c65 39 159 113 216 169l55 -63c-67 -51 -180 -109 -255 -141zM393 889c74 0 125 -44 125 -98c0 -60 -59 -112 -140 -112c-74 0 -125 44 -125 99c0 61 59 111 140 111zM390 -3c-5 64 -9 128 -14 192h-211c-29 -63 -58 -126 -86 -189h-82c95 207 196 415 300 622
h114c22 -206 42 -412 59 -619zM337 551c-49 -99 -96 -200 -143 -300h177c-8 100 -17 201 -27 300h-7z" />
    <glyph glyph-name="aringacute" unicode="&#x1fb;" 
d="M300 841c65 39 159 113 216 169l55 -63c-67 -51 -180 -109 -255 -141zM384 767c74 0 125 -44 125 -98c0 -60 -59 -112 -140 -112c-74 0 -125 44 -125 99c0 61 59 111 140 111zM193 63c42 0 106 41 155 90c10 51 37 188 52 264c-36 11 -71 16 -94 16
c-98 0 -177 -135 -177 -272c0 -69 28 -98 64 -98zM513 37c-146 -86 -185 -45 -173 58c-59 -58 -130 -105 -186 -105c-60 0 -104 50 -104 153c0 183 121 357 298 357c42 0 89 -7 140 -21l-69 -352c-14 -69 -8 -85 86 -50z" />
    <glyph glyph-name="Atilde" unicode="&#xc3;" 
d="M459 760c27 0 58 42 94 100l40 -24c-49 -84 -99 -136 -150 -136c-67 0 -90 102 -133 102c-27 0 -57 -37 -94 -95l-40 23c49 85 100 133 150 133c67 0 90 -103 133 -103zM390 -3c-5 64 -9 128 -14 192h-211c-29 -63 -58 -126 -86 -189h-82c95 207 196 415 300 622h114
c22 -206 42 -412 59 -619zM337 551c-49 -99 -96 -200 -143 -300h177c-8 100 -17 201 -27 300h-7z" />
    <glyph glyph-name="atilde" unicode="&#xe3;" 
d="M451 638c27 0 58 42 94 100l40 -24c-49 -84 -99 -136 -150 -136c-67 0 -90 102 -133 102c-27 0 -57 -37 -94 -95l-40 23c49 85 100 133 150 133c67 0 90 -103 133 -103zM193 63c42 0 106 41 155 90c10 51 37 188 52 264c-36 11 -71 16 -94 16c-98 0 -177 -135 -177 -272
c0 -69 28 -98 64 -98zM513 37c-146 -86 -185 -45 -173 58c-59 -58 -130 -105 -186 -105c-60 0 -104 50 -104 153c0 183 121 357 298 357c42 0 89 -7 140 -21l-69 -352c-14 -69 -8 -85 86 -50z" />
    <glyph glyph-name="Cacute" unicode="&#x106;" 
d="M255 736c65 39 159 113 216 169l55 -63c-67 -51 -180 -109 -255 -141zM377 633c114 0 147 -79 140 -231l-76 -1c2 106 -9 160 -80 160c-123 0 -215 -168 -215 -324c0 -170 108 -218 314 -142l-8 -73c-244 -87 -387 -8 -387 201c0 212 138 410 312 410z" />
    <glyph glyph-name="cacute" unicode="&#x107;" 
d="M236 604c65 39 159 113 216 169l55 -63c-67 -51 -180 -109 -255 -141zM493 334h-72c-1 74 -24 100 -77 100c-108 0 -196 -115 -196 -245c0 -128 92 -166 301 -100l10 -42c-253 -123 -389 -34 -389 129c0 171 136 325 294 325c92 0 134 -49 129 -167z" />
    <glyph glyph-name="Ccaron" unicode="&#x10c;" 
d="M371 698h-4l-140 150l54 42l102 -116l157 112l36 -42zM377 633c114 0 147 -79 140 -231l-76 -1c2 106 -9 160 -80 160c-123 0 -215 -168 -215 -324c0 -170 108 -218 314 -142l-8 -73c-244 -87 -387 -8 -387 201c0 212 138 410 312 410z" />
    <glyph glyph-name="ccaron" unicode="&#x10d;" 
d="M352 566h-4l-140 150l54 42l102 -116l157 112l36 -42zM493 334h-72c-1 74 -24 100 -77 100c-108 0 -196 -115 -196 -245c0 -128 92 -166 301 -100l10 -42c-253 -123 -389 -34 -389 129c0 171 136 325 294 325c92 0 134 -49 129 -167z" />
    <glyph glyph-name="Ccedilla" unicode="&#xc7;" 
d="M352 -181l-70 -2c6 95 -16 132 -50 132c-33 0 -64 -39 -96 -104l-42 13c31 76 66 122 106 140c-87 27 -135 104 -135 225c0 212 138 410 312 410c114 0 147 -79 140 -231l-76 -1c2 106 -9 160 -80 160c-123 0 -215 -168 -215 -324c0 -170 108 -218 314 -142l-8 -73
c-56 -20 -107 -31 -152 -34c35 -27 57 -82 52 -169z" />
    <glyph glyph-name="ccedilla" unicode="&#xe7;" 
d="M349 -184l-70 -2c6 95 -16 132 -50 132c-33 0 -64 -39 -96 -104l-42 13c32 77 67 123 107 140c-84 20 -128 89 -128 181c0 171 136 325 294 325c92 0 134 -49 129 -167h-72c-1 74 -24 100 -77 100c-108 0 -196 -115 -196 -245c0 -128 92 -166 301 -100l10 -42
c-65 -32 -123 -49 -172 -55c41 -24 68 -81 62 -176z" />
    <glyph glyph-name="Cdotaccent" unicode="&#x10a;" 
d="M409 715l-82 -1l32 132l91 1zM377 633c114 0 147 -79 140 -231l-76 -1c2 106 -9 160 -80 160c-123 0 -215 -168 -215 -324c0 -170 108 -218 314 -142l-8 -73c-244 -87 -387 -8 -387 201c0 212 138 410 312 410z" />
    <glyph glyph-name="cdotaccent" unicode="&#x10b;" 
d="M390 583l-82 -1l32 132l91 1zM493 334h-72c-1 74 -24 100 -77 100c-108 0 -196 -115 -196 -245c0 -128 92 -166 301 -100l10 -42c-253 -123 -389 -34 -389 129c0 171 136 325 294 325c92 0 134 -49 129 -167z" />
    <glyph glyph-name="Dcaron" unicode="&#x10e;" 
d="M372 693h-4l-140 150l54 42l102 -116l157 112l36 -42zM522 384c0 -228 -147 -427 -479 -384l120 618c233 39 359 -40 359 -234zM441 375c0 139 -72 197 -209 182l-96 -493c206 -17 305 135 305 311z" />
    <glyph glyph-name="dcaron" unicode="&#x10f;" 
d="M627 798l90 5c-5 -86 -33 -167 -108 -254l-34 15c53 90 56 159 52 234zM197 63c44 0 105 38 151 86l53 270c-38 11 -74 17 -97 17c-97 0 -176 -132 -176 -264c0 -74 30 -109 69 -109zM517 38c-146 -85 -187 -47 -177 52c-56 -56 -126 -100 -181 -100
c-62 0 -109 54 -109 162c0 180 119 349 293 349c22 0 46 -2 73 -6l39 202l78 6l-112 -574c-14 -72 -8 -88 87 -52z" />
    <glyph glyph-name="Dcroat" unicode="&#x110;" 
d="M522 384c0 -228 -147 -427 -479 -384l55 285h-70l11 58h71l53 275c233 39 359 -40 359 -234zM308 285h-129l-43 -221c206 -17 305 135 305 311c0 139 -72 197 -209 182l-42 -214h132z" />
    <glyph glyph-name="dcroat" unicode="&#x111;" 
d="M197 63c44 0 105 38 151 86l53 270c-38 11 -74 17 -97 17c-97 0 -176 -132 -176 -264c0 -74 30 -109 69 -109zM517 38c-146 -85 -187 -47 -177 52c-56 -56 -126 -100 -181 -100c-62 0 -109 54 -109 162c0 180 119 349 293 349c22 0 46 -2 73 -6l16 84h-136l11 52h135
l13 66l78 6l-14 -72h69l-10 -53h-69l-88 -449c-14 -72 -8 -88 87 -52z" />
    <glyph glyph-name="Eacute" unicode="&#xc9;" 
d="M259 723c65 39 159 113 216 169l55 -63c-67 -51 -180 -109 -255 -141zM443 69l-18 -69h-367l120 620h370l-14 -69h-288l-40 -207h244l-12 -61h-244l-42 -214h291z" />
    <glyph glyph-name="eacute" unicode="&#xe9;" 
d="M233 605c65 39 159 113 216 169l55 -63c-67 -51 -180 -109 -255 -141zM470 56c-266 -136 -408 -46 -408 118c0 155 127 328 296 328c86 0 139 -45 139 -117c0 -114 -129 -183 -359 -200v-1c0 -129 95 -162 322 -87zM339 437c-106 0 -180 -102 -197 -206
c170 12 280 57 280 139c0 40 -32 67 -83 67z" />
    <glyph glyph-name="Ebreve" unicode="&#x114;" 
d="M548 867l45 -28c-69 -91 -141 -144 -212 -144c-68 0 -121 47 -159 146l60 31c34 -82 66 -114 115 -114c52 0 95 40 151 109zM443 69l-18 -69h-367l120 620h370l-14 -69h-288l-40 -207h244l-12 -61h-244l-42 -214h291z" />
    <glyph glyph-name="ebreve" unicode="&#x115;" 
d="M522 749l45 -28c-69 -91 -141 -144 -212 -144c-68 0 -121 47 -159 146l60 31c34 -82 66 -114 115 -114c52 0 95 40 151 109zM470 56c-266 -136 -408 -46 -408 118c0 155 127 328 296 328c86 0 139 -45 139 -117c0 -114 -129 -183 -359 -200v-1c0 -129 95 -162 322 -87z
M339 437c-106 0 -180 -102 -197 -206c170 12 280 57 280 139c0 40 -32 67 -83 67z" />
    <glyph glyph-name="Ecaron" unicode="&#x11a;" 
d="M375 685h-4l-140 150l54 42l102 -116l157 112l36 -42zM443 69l-18 -69h-367l120 620h370l-14 -69h-288l-40 -207h244l-12 -61h-244l-42 -214h291z" />
    <glyph glyph-name="ecaron" unicode="&#x11b;" 
d="M350 567h-4l-140 150l54 42l102 -116l157 112l36 -42zM470 56c-266 -136 -408 -46 -408 118c0 155 127 328 296 328c86 0 139 -45 139 -117c0 -114 -129 -183 -359 -200v-1c0 -129 95 -162 322 -87zM339 437c-106 0 -180 -102 -197 -206c170 12 280 57 280 139
c0 40 -32 67 -83 67z" />
    <glyph glyph-name="Ecircumflex" unicode="&#xca;" 
d="M506 688l-101 115l-158 -111l-35 41l205 147h4l139 -150zM443 69l-18 -69h-367l120 620h370l-14 -69h-288l-40 -207h244l-12 -61h-244l-42 -214h291z" />
    <glyph glyph-name="ecircumflex" unicode="&#xea;" 
d="M481 570l-101 115l-158 -111l-35 41l205 147h4l139 -150zM470 56c-266 -136 -408 -46 -408 118c0 155 127 328 296 328c86 0 139 -45 139 -117c0 -114 -129 -183 -359 -200v-1c0 -129 95 -162 322 -87zM339 437c-106 0 -180 -102 -197 -206c170 12 280 57 280 139
c0 40 -32 67 -83 67z" />
    <glyph glyph-name="Edieresis" unicode="&#xcb;" 
d="M521 703l-81 -1l31 132l90 2zM306 701l-81 -1l32 132l89 1zM443 69l-18 -69h-367l120 620h370l-14 -69h-288l-40 -207h244l-12 -61h-244l-42 -214h291z" />
    <glyph glyph-name="edieresis" unicode="&#xeb;" 
d="M495 585l-81 -1l31 132l90 2zM280 583l-81 -1l32 132l89 1zM470 56c-266 -136 -408 -46 -408 118c0 155 127 328 296 328c86 0 139 -45 139 -117c0 -114 -129 -183 -359 -200v-1c0 -129 95 -162 322 -87zM339 437c-106 0 -180 -102 -197 -206c170 12 280 57 280 139
c0 40 -32 67 -83 67z" />
    <glyph glyph-name="Edotaccent" unicode="&#x116;" 
d="M413 702l-82 -1l32 132l91 1zM443 69l-18 -69h-367l120 620h370l-14 -69h-288l-40 -207h244l-12 -61h-244l-42 -214h291z" />
    <glyph glyph-name="edotaccent" unicode="&#x117;" 
d="M388 584l-82 -1l32 132l91 1zM470 56c-266 -136 -408 -46 -408 118c0 155 127 328 296 328c86 0 139 -45 139 -117c0 -114 -129 -183 -359 -200v-1c0 -129 95 -162 322 -87zM339 437c-106 0 -180 -102 -197 -206c170 12 280 57 280 139c0 40 -32 67 -83 67z" />
    <glyph glyph-name="Egrave" unicode="&#xc8;" 
d="M500 715l-20 -33c-63 33 -162 100 -220 153l53 62c50 -59 130 -138 187 -182zM443 69l-18 -69h-367l120 620h370l-14 -69h-288l-40 -207h244l-12 -61h-244l-42 -214h291z" />
    <glyph glyph-name="egrave" unicode="&#xe8;" 
d="M474 597l-20 -33c-63 33 -162 100 -220 153l53 62c50 -59 130 -138 187 -182zM470 56c-266 -136 -408 -46 -408 118c0 155 127 328 296 328c86 0 139 -45 139 -117c0 -114 -129 -183 -359 -200v-1c0 -129 95 -162 322 -87zM339 437c-106 0 -180 -102 -197 -206
c170 12 280 57 280 139c0 40 -32 67 -83 67z" />
    <glyph glyph-name="Emacron" unicode="&#x112;" 
d="M565 803l-13 -66h-330l13 66h330zM443 69l-18 -69h-367l120 620h370l-14 -69h-288l-40 -207h244l-12 -61h-244l-42 -214h291z" />
    <glyph glyph-name="emacron" unicode="&#x113;" 
d="M540 685l-13 -66h-330l13 66h330zM470 56c-266 -136 -408 -46 -408 118c0 155 127 328 296 328c86 0 139 -45 139 -117c0 -114 -129 -183 -359 -200v-1c0 -129 95 -162 322 -87zM339 437c-106 0 -180 -102 -197 -206c170 12 280 57 280 139c0 40 -32 67 -83 67z" />
    <glyph glyph-name="Eogonek" unicode="&#x118;" 
d="M395 -168c-149 -76 -228 -35 -228 26c0 44 45 94 153 142h-262l120 620h370l-14 -69h-288l-40 -207h244l-12 -61h-244l-42 -214h291l-18 -69c-132 -43 -185 -85 -185 -119c0 -33 41 -51 145 -12z" />
    <glyph glyph-name="eogonek" unicode="&#x119;" 
d="M401 -167c-149 -76 -227 -35 -227 26c0 43 32 88 106 133c-143 -18 -218 63 -218 182c0 155 127 328 296 328c86 0 139 -45 139 -117c0 -114 -129 -183 -359 -200v-1c0 -129 95 -162 322 -87l10 -41c-138 -62 -224 -125 -224 -175c0 -33 41 -50 145 -11zM339 437
c-106 0 -180 -102 -197 -206c170 12 280 57 280 139c0 40 -32 67 -83 67z" />
    <glyph glyph-name="Gbreve" unicode="&#x11e;" 
d="M537 880l45 -28c-69 -91 -141 -144 -212 -144c-68 0 -121 47 -159 146l60 31c34 -82 66 -114 115 -114c52 0 95 40 151 109zM403 -109l-73 -1l26 114c-183 -51 -292 32 -292 215c0 215 138 414 303 414c110 0 148 -74 141 -231h-76c3 104 -10 159 -78 159
c-119 0 -208 -170 -208 -329c0 -151 79 -205 226 -156l37 164l77 3z" />
    <glyph glyph-name="gbreve" unicode="&#x11f;" 
d="M519 750l45 -28c-69 -91 -141 -144 -212 -144c-68 0 -121 47 -159 146l60 31c34 -82 66 -114 115 -114c52 0 95 40 151 109zM211 96c48 0 100 37 144 104c9 71 31 149 54 207c-39 20 -75 29 -102 29c-100 0 -173 -124 -173 -239c0 -69 33 -101 77 -101zM422 -82
c-31 -62 -140 -102 -377 -88l8 76c194 -16 278 3 298 24c25 24 3 98 1 201c-49 -61 -112 -107 -177 -107c-68 0 -119 51 -119 154c0 165 118 323 283 323c36 0 70 -8 104 -24c10 16 19 25 26 25c20 0 52 -13 52 -28c0 -35 -45 -159 -97 -260c-1 -17 -2 -33 -2 -46
c0 -130 25 -200 0 -250z" />
    <glyph glyph-name="Gcommaaccent" unicode="&#x122;" 
d="M403 -109l-73 -1l26 114c-183 -51 -292 32 -292 215c0 215 138 414 303 414c110 0 148 -74 141 -231h-76c3 104 -10 159 -78 159c-119 0 -208 -170 -208 -329c0 -151 79 -205 226 -156l37 164l77 3zM109 -355c44 68 48 130 38 188l102 3c-3 -70 -39 -144 -109 -207z" />
    <glyph glyph-name="gcommaaccent" unicode="&#x123;" 
d="M426 766c-45 -69 -49 -131 -39 -189l-101 -2c3 69 38 144 108 206zM211 96c48 0 100 37 144 104c9 71 31 149 54 207c-39 20 -75 29 -102 29c-100 0 -173 -124 -173 -239c0 -69 33 -101 77 -101zM422 -82c-31 -62 -140 -102 -377 -88l8 76c194 -16 278 3 298 24
c25 24 3 98 1 201c-49 -61 -112 -107 -177 -107c-68 0 -119 51 -119 154c0 165 118 323 283 323c36 0 70 -8 104 -24c10 16 19 25 26 25c20 0 52 -13 52 -28c0 -35 -45 -159 -97 -260c-1 -17 -2 -33 -2 -46c0 -130 25 -200 0 -250z" />
    <glyph glyph-name="Gdotaccent" unicode="&#x120;" 
d="M402 715l-82 -1l32 132l91 1zM403 -109l-73 -1l26 114c-183 -51 -292 32 -292 215c0 215 138 414 303 414c110 0 148 -74 141 -231h-76c3 104 -10 159 -78 159c-119 0 -208 -170 -208 -329c0 -151 79 -205 226 -156l37 164l77 3z" />
    <glyph glyph-name="gdotaccent" unicode="&#x121;" 
d="M385 585l-82 -1l32 132l91 1zM211 96c48 0 100 37 144 104c9 71 31 149 54 207c-39 20 -75 29 -102 29c-100 0 -173 -124 -173 -239c0 -69 33 -101 77 -101zM422 -82c-31 -62 -140 -102 -377 -88l8 76c194 -16 278 3 298 24c25 24 3 98 1 201
c-49 -61 -112 -107 -177 -107c-68 0 -119 51 -119 154c0 165 118 323 283 323c36 0 70 -8 104 -24c10 16 19 25 26 25c20 0 52 -13 52 -28c0 -35 -45 -159 -97 -260c-1 -17 -2 -33 -2 -46c0 -130 25 -200 0 -250z" />
    <glyph glyph-name="Hbar" unicode="&#x126;" 
d="M413 332l22 114h-228l-22 -114h228zM349 0l52 268h-228l-52 -268h-81l86 444h-72l12 58h71l23 118h81l-23 -121h228l23 121h82l-23 -118h70l-11 -58h-70l-86 -444h-82z" />
    <glyph glyph-name="hbar" unicode="&#x127;" 
d="M514 36c-120 -74 -177 -52 -177 14c0 77 65 240 65 320c0 36 -16 56 -50 56c-43 0 -102 -35 -166 -104l-63 -322h-76l112 578h-71l10 53h71l13 66l78 6l-14 -72h135l-10 -52h-135l-37 -191c70 74 139 112 200 112c63 0 86 -42 86 -94c0 -98 -67 -267 -67 -324
c0 -27 13 -34 85 -5z" />
    <glyph glyph-name="Iacute" unicode="&#xcd;" 
d="M239 723c65 39 159 113 216 169l55 -63c-67 -51 -180 -109 -255 -141zM277 65h150l-15 -65h-376l13 65h147l95 490h-150l13 65h375l-12 -65h-145z" />
    <glyph glyph-name="iacute" unicode="&#xed;" 
d="M208 594c65 39 159 113 216 169l55 -63c-67 -51 -180 -109 -255 -141zM473 44c-247 -101 -331 -55 -293 88l76 289l-177 -24l-5 42l206 51l69 -1l-90 -344c-23 -90 3 -109 205 -58z" />
    <glyph glyph-name="Ibreve" unicode="&#x12c;" 
d="M528 867l45 -28c-69 -91 -141 -144 -212 -144c-68 0 -121 47 -159 146l60 31c34 -82 66 -114 115 -114c52 0 95 40 151 109zM277 65h150l-15 -65h-376l13 65h147l95 490h-150l13 65h375l-12 -65h-145z" />
    <glyph glyph-name="ibreve" unicode="&#x12d;" 
d="M497 738l45 -28c-69 -91 -141 -144 -212 -144c-68 0 -121 47 -159 146l60 31c34 -82 66 -114 115 -114c52 0 95 40 151 109zM473 44c-247 -101 -331 -55 -293 88l76 289l-177 -24l-5 42l206 51l69 -1l-90 -344c-23 -90 3 -109 205 -58z" />
    <glyph glyph-name="Icircumflex" unicode="&#xce;" 
d="M486 688l-101 115l-158 -111l-35 41l205 147h4l139 -150zM277 65h150l-15 -65h-376l13 65h147l95 490h-150l13 65h375l-12 -65h-145z" />
    <glyph glyph-name="icircumflex" unicode="&#xee;" 
d="M456 559l-101 115l-158 -111l-35 41l205 147h4l139 -150zM473 44c-247 -101 -331 -55 -293 88l76 289l-177 -24l-5 42l206 51l69 -1l-90 -344c-23 -90 3 -109 205 -58z" />
    <glyph glyph-name="Idieresis" unicode="&#xcf;" 
d="M501 703l-81 -1l31 132l90 2zM286 701l-81 -1l32 132l89 1zM277 65h150l-15 -65h-376l13 65h147l95 490h-150l13 65h375l-12 -65h-145z" />
    <glyph glyph-name="idieresis" unicode="&#xef;" 
d="M470 574l-81 -1l31 132l90 2zM255 572l-81 -1l32 132l89 1zM473 44c-247 -101 -331 -55 -293 88l76 289l-177 -24l-5 42l206 51l69 -1l-90 -344c-23 -90 3 -109 205 -58z" />
    <glyph glyph-name="Idotaccent" unicode="&#x130;" 
d="M393 702l-82 -1l32 132l91 1zM277 65h150l-15 -65h-376l13 65h147l95 490h-150l13 65h375l-12 -65h-145z" />
    <glyph glyph-name="dotlessi" unicode="&#x131;" 
d="M473 44c-247 -101 -331 -55 -293 88l76 289l-177 -24l-5 42l206 51l69 -1l-90 -344c-23 -90 3 -109 205 -58z" />
    <glyph glyph-name="Igrave" unicode="&#xcc;" 
d="M480 715l-20 -33c-63 33 -162 100 -220 153l53 62c50 -59 130 -138 187 -182zM277 65h150l-15 -65h-376l13 65h147l95 490h-150l13 65h375l-12 -65h-145z" />
    <glyph glyph-name="igrave" unicode="&#xec;" 
d="M449 586l-20 -33c-63 33 -162 100 -220 153l53 62c50 -59 130 -138 187 -182zM473 44c-247 -101 -331 -55 -293 88l76 289l-177 -24l-5 42l206 51l69 -1l-90 -344c-23 -90 3 -109 205 -58z" />
    <glyph glyph-name="Imacron" unicode="&#x12a;" 
d="M545 803l-13 -66h-330l13 66h330zM277 65h150l-15 -65h-376l13 65h147l95 490h-150l13 65h375l-12 -65h-145z" />
    <glyph glyph-name="imacron" unicode="&#x12b;" 
d="M515 674l-13 -66h-330l13 66h330zM473 44c-247 -101 -331 -55 -293 88l76 289l-177 -24l-5 42l206 51l69 -1l-90 -344c-23 -90 3 -109 205 -58z" />
    <glyph glyph-name="Iogonek" unicode="&#x12e;" 
d="M310 -167c-149 -76 -227 -35 -227 26c0 45 31 93 106 141h-153l13 65h147l95 490h-150l13 65h375l-12 -65h-145l-95 -490h150l-15 -65h-140c-83 -43 -117 -84 -117 -119c0 -33 42 -50 145 -11z" />
    <glyph glyph-name="iogonek" unicode="&#x12f;" 
d="M370 574l-81 -4l31 133l90 5zM388 -167c-149 -76 -228 -35 -228 26c0 42 30 86 111 131c-92 -3 -116 50 -91 142l76 289l-177 -24l-5 42l206 51l69 -1l-90 -344c-23 -90 3 -109 205 -58l9 -43c-193 -75 -240 -122 -240 -163c0 -33 41 -50 145 -11z" />
    <glyph glyph-name="Kcommaaccent" unicode="&#x136;" 
d="M394 -6l-181 318l282 308h88l-281 -309l178 -306zM170 620h81l-121 -620h-81zM161 -265c44 68 48 130 38 188l102 3c-3 -70 -39 -144 -109 -207z" />
    <glyph glyph-name="kcommaaccent" unicode="&#x137;" 
d="M403 -6l-180 204c162 84 209 147 209 189c0 27 -18 42 -48 42c-49 0 -118 -39 -192 -114l-61 -315h-77l135 697l78 6l-62 -320c77 78 157 118 220 118c58 0 91 -33 91 -82c0 -65 -56 -140 -201 -218l177 -195zM156 -265c44 68 48 130 38 188l102 3
c-3 -70 -39 -144 -109 -207z" />
    <glyph glyph-name="Lacute" unicode="&#x139;" 
d="M269 723c65 39 159 113 216 169l55 -63c-67 -51 -180 -109 -255 -141zM446 0h-385l120 620h82l-106 -550h304z" />
    <glyph glyph-name="lacute" unicode="&#x13a;" 
d="M373 806c65 39 159 113 216 169l55 -63c-67 -51 -180 -109 -255 -141zM463 65c-186 -111 -309 -97 -333 52c-20 -12 -42 -26 -48 -30l-21 36c9 6 42 27 64 42v13c0 272 173 528 314 528c59 0 94 -38 94 -104c0 -119 -96 -274 -328 -440c11 -126 91 -130 243 -57zM412 629
c-84 0 -200 -194 -208 -413c186 146 255 271 255 353c0 40 -19 60 -47 60z" />
    <glyph glyph-name="Lcaron" unicode="&#x13d;" 
d="M474 695l90 5c-5 -86 -33 -167 -108 -254l-34 15c53 90 56 159 52 234zM446 0h-385l120 620h82l-106 -550h304z" />
    <glyph glyph-name="lcaron" unicode="&#x13e;" 
d="M625 798l90 5c-5 -86 -33 -167 -108 -254l-34 15c53 90 56 159 52 234zM463 65c-186 -111 -309 -97 -333 52c-20 -12 -42 -26 -48 -30l-21 36c9 6 42 27 64 42v13c0 272 173 528 314 528c59 0 94 -38 94 -104c0 -119 -96 -274 -328 -440c11 -126 91 -130 243 -57z
M412 629c-84 0 -200 -194 -208 -413c186 146 255 271 255 353c0 40 -19 60 -47 60z" />
    <glyph glyph-name="Lcommaaccent" unicode="&#x13b;" 
d="M446 0h-385l120 620h82l-106 -550h304zM152 -259c44 68 48 130 38 188l102 3c-3 -70 -39 -144 -109 -207z" />
    <glyph glyph-name="lcommaaccent" unicode="&#x13c;" 
d="M463 65c-186 -111 -309 -97 -333 52c-20 -12 -42 -26 -48 -30l-21 36c9 6 42 27 64 42v13c0 272 173 528 314 528c59 0 94 -38 94 -104c0 -119 -96 -274 -328 -440c11 -126 91 -130 243 -57zM412 629c-84 0 -200 -194 -208 -413c186 146 255 271 255 353
c0 40 -19 60 -47 60zM170 -267c44 68 48 130 38 188l102 3c-3 -70 -39 -144 -109 -207z" />
    <glyph glyph-name="Ldot" unicode="&#x13f;" 
d="M446 0h-385l120 620h82l-106 -550h304zM472 266h-92l26 108h92z" />
    <glyph glyph-name="ldot" unicode="&#x140;" 
d="M463 65c-186 -111 -309 -97 -333 52c-20 -12 -42 -26 -48 -30l-21 36c9 6 42 27 64 42v13c0 272 173 528 314 528c59 0 94 -38 94 -104c0 -119 -96 -274 -328 -440c11 -126 91 -130 243 -57zM412 629c-84 0 -200 -194 -208 -413c186 146 255 271 255 353
c0 40 -19 60 -47 60zM586 263h-88l24 108h88z" />
    <glyph glyph-name="Lslash" unicode="&#x141;" 
d="M460 0h-385l57 296l-76 -36l-2 55l90 43l51 262h82l-42 -220l152 72l3 -56l-167 -78l-52 -268h304z" />
    <glyph glyph-name="lslash" unicode="&#x142;" 
d="M142 719c0 109 231 166 523 87l-26 -63c-255 74 -443 39 -443 -11c0 -17 18 -33 53 -60l-42 -50c-39 29 -65 59 -65 97zM463 65c-186 -111 -309 -97 -333 52c-20 -12 -42 -26 -48 -30l-21 36c9 6 42 27 64 42v13c0 272 173 528 314 528c59 0 94 -38 94 -104
c0 -119 -96 -274 -328 -440c11 -126 91 -130 243 -57zM412 629c-84 0 -200 -194 -208 -413c186 146 255 271 255 353c0 40 -19 60 -47 60z" />
    <glyph glyph-name="Nacute" unicode="&#x143;" 
d="M251 725c65 39 159 113 216 169l55 -63c-67 -51 -180 -109 -255 -141zM355 0l-142 489h-5l-92 -489h-76l120 619l85 2l136 -480h5l91 479h76l-121 -620h-77z" />
    <glyph glyph-name="nacute" unicode="&#x144;" 
d="M215 604c65 39 159 113 216 169l55 -63c-67 -51 -180 -109 -255 -141zM514 36c-120 -74 -177 -52 -177 14c0 77 65 240 65 321c0 37 -16 57 -50 57c-42 0 -100 -33 -164 -98c-11 -62 -51 -261 -65 -330h-76c45 233 67 343 89 488l76 5c-3 -17 -10 -65 -15 -103
c70 73 141 111 202 111c63 0 86 -41 86 -93c0 -99 -67 -269 -67 -326c0 -27 13 -34 85 -5z" />
    <glyph glyph-name="Ncaron" unicode="&#x147;" 
d="M367 687h-4l-140 150l54 42l102 -116l157 112l36 -42zM355 0l-142 489h-5l-92 -489h-76l120 619l85 2l136 -480h5l91 479h76l-121 -620h-77z" />
    <glyph glyph-name="ncaron" unicode="&#x148;" 
d="M331 566h-4l-140 150l54 42l102 -116l157 112l36 -42zM514 36c-120 -74 -177 -52 -177 14c0 77 65 240 65 321c0 37 -16 57 -50 57c-42 0 -100 -33 -164 -98c-11 -62 -51 -261 -65 -330h-76c45 233 67 343 89 488l76 5c-3 -17 -10 -65 -15 -103c70 73 141 111 202 111
c63 0 86 -41 86 -93c0 -99 -67 -269 -67 -326c0 -27 13 -34 85 -5z" />
    <glyph glyph-name="Ncommaaccent" unicode="&#x145;" 
d="M355 0l-142 489h-5l-92 -489h-76l120 619l85 2l136 -480h5l91 479h76l-121 -620h-77zM134 -259c44 68 48 130 38 188l102 3c-3 -70 -39 -144 -109 -207z" />
    <glyph glyph-name="ncommaaccent" unicode="&#x146;" 
d="M514 36c-120 -74 -177 -52 -177 14c0 77 65 240 65 321c0 37 -16 57 -50 57c-42 0 -100 -33 -164 -98c-11 -62 -51 -261 -65 -330h-76c45 233 67 343 89 488l76 5c-3 -17 -10 -65 -15 -103c70 73 141 111 202 111c63 0 86 -41 86 -93c0 -99 -67 -269 -67 -326
c0 -27 13 -34 85 -5zM131 -269c44 68 48 130 38 188l102 3c-3 -70 -39 -144 -109 -207z" />
    <glyph glyph-name="Ntilde" unicode="&#xd1;" 
d="M462 760c27 0 58 42 94 100l40 -24c-49 -84 -99 -136 -150 -136c-67 0 -90 102 -133 102c-27 0 -57 -37 -94 -95l-40 23c49 85 100 133 150 133c67 0 90 -103 133 -103zM355 0l-142 489h-5l-92 -489h-76l120 619l85 2l136 -480h5l91 479h76l-121 -620h-77z" />
    <glyph glyph-name="ntilde" unicode="&#xf1;" 
d="M426 639c27 0 58 42 94 100l40 -24c-49 -84 -99 -136 -150 -136c-67 0 -90 102 -133 102c-27 0 -57 -37 -94 -95l-40 23c49 85 100 133 150 133c67 0 90 -103 133 -103zM514 36c-120 -74 -177 -52 -177 14c0 77 65 240 65 321c0 37 -16 57 -50 57
c-42 0 -100 -33 -164 -98c-11 -62 -51 -261 -65 -330h-76c45 233 67 343 89 488l76 5c-3 -17 -10 -65 -15 -103c70 73 141 111 202 111c63 0 86 -41 86 -93c0 -99 -67 -269 -67 -326c0 -27 13 -34 85 -5z" />
    <glyph glyph-name="Oacute" unicode="&#xd3;" 
d="M253 737c65 39 159 113 216 169l55 -63c-67 -51 -180 -109 -255 -141zM350 632c106 0 180 -76 180 -233c0 -208 -121 -411 -290 -411c-106 0 -180 75 -180 232c0 208 121 412 290 412zM251 58c115 0 195 171 195 337c0 113 -42 167 -107 167c-115 0 -195 -171 -195 -337
c0 -113 42 -167 107 -167z" />
    <glyph glyph-name="oacute" unicode="&#xf3;" 
d="M220 605c65 39 159 113 216 169l55 -63c-67 -51 -180 -109 -255 -141zM54 188c0 172 114 314 263 314c108 0 180 -71 180 -200c0 -174 -116 -313 -264 -313c-109 0 -179 70 -179 199zM417 291c0 92 -41 146 -113 146c-102 0 -171 -112 -171 -238c0 -92 41 -145 113 -145
c101 0 171 110 171 237z" />
    <glyph glyph-name="Obreve" unicode="&#x14e;" 
d="M541 881l45 -28c-69 -91 -141 -144 -212 -144c-68 0 -121 47 -159 146l60 31c34 -82 66 -114 115 -114c52 0 95 40 151 109zM350 632c106 0 180 -76 180 -233c0 -208 -121 -411 -290 -411c-106 0 -180 75 -180 232c0 208 121 412 290 412zM251 58c115 0 195 171 195 337
c0 113 -42 167 -107 167c-115 0 -195 -171 -195 -337c0 -113 42 -167 107 -167z" />
    <glyph glyph-name="obreve" unicode="&#x14f;" 
d="M508 749l45 -28c-69 -91 -141 -144 -212 -144c-68 0 -121 47 -159 146l60 31c34 -82 66 -114 115 -114c52 0 95 40 151 109zM54 188c0 172 114 314 263 314c108 0 180 -71 180 -200c0 -174 -116 -313 -264 -313c-109 0 -179 70 -179 199zM417 291c0 92 -41 146 -113 146
c-102 0 -171 -112 -171 -238c0 -92 41 -145 113 -145c101 0 171 110 171 237z" />
    <glyph glyph-name="Ocircumflex" unicode="&#xd4;" 
d="M500 702l-101 115l-158 -111l-35 41l205 147h4l139 -150zM350 632c106 0 180 -76 180 -233c0 -208 -121 -411 -290 -411c-106 0 -180 75 -180 232c0 208 121 412 290 412zM251 58c115 0 195 171 195 337c0 113 -42 167 -107 167c-115 0 -195 -171 -195 -337
c0 -113 42 -167 107 -167z" />
    <glyph glyph-name="ocircumflex" unicode="&#xf4;" 
d="M467 570l-101 115l-158 -111l-35 41l205 147h4l139 -150zM54 188c0 172 114 314 263 314c108 0 180 -71 180 -200c0 -174 -116 -313 -264 -313c-109 0 -179 70 -179 199zM417 291c0 92 -41 146 -113 146c-102 0 -171 -112 -171 -238c0 -92 41 -145 113 -145
c101 0 171 110 171 237z" />
    <glyph glyph-name="Odieresis" unicode="&#xd6;" 
d="M515 717l-81 -1l31 132l90 2zM300 715l-81 -1l32 132l89 1zM350 632c106 0 180 -76 180 -233c0 -208 -121 -411 -290 -411c-106 0 -180 75 -180 232c0 208 121 412 290 412zM251 58c115 0 195 171 195 337c0 113 -42 167 -107 167c-115 0 -195 -171 -195 -337
c0 -113 42 -167 107 -167z" />
    <glyph glyph-name="odieresis" unicode="&#xf6;" 
d="M482 585l-81 -1l31 132l90 2zM267 583l-81 -1l32 132l89 1zM54 188c0 172 114 314 263 314c108 0 180 -71 180 -200c0 -174 -116 -313 -264 -313c-109 0 -179 70 -179 199zM417 291c0 92 -41 146 -113 146c-102 0 -171 -112 -171 -238c0 -92 41 -145 113 -145
c101 0 171 110 171 237z" />
    <glyph glyph-name="Ograve" unicode="&#xd2;" 
d="M494 729l-20 -33c-63 33 -162 100 -220 153l53 62c50 -59 130 -138 187 -182zM350 632c106 0 180 -76 180 -233c0 -208 -121 -411 -290 -411c-106 0 -180 75 -180 232c0 208 121 412 290 412zM251 58c115 0 195 171 195 337c0 113 -42 167 -107 167
c-115 0 -195 -171 -195 -337c0 -113 42 -167 107 -167z" />
    <glyph glyph-name="ograve" unicode="&#xf2;" 
d="M461 597l-20 -33c-63 33 -162 100 -220 153l53 62c50 -59 130 -138 187 -182zM54 188c0 172 114 314 263 314c108 0 180 -71 180 -200c0 -174 -116 -313 -264 -313c-109 0 -179 70 -179 199zM417 291c0 92 -41 146 -113 146c-102 0 -171 -112 -171 -238
c0 -92 41 -145 113 -145c101 0 171 110 171 237z" />
    <glyph glyph-name="Ohungarumlaut" unicode="&#x150;" 
d="M254 703l-34 27c47 54 104 138 137 194l76 -41c-43 -53 -118 -129 -179 -180zM464 703l-35 27c47 54 102 132 134 189l78 -37c-43 -54 -116 -129 -177 -179zM350 632c106 0 180 -76 180 -233c0 -208 -121 -411 -290 -411c-106 0 -180 75 -180 232c0 208 121 412 290 412z
M251 58c115 0 195 171 195 337c0 113 -42 167 -107 167c-115 0 -195 -171 -195 -337c0 -113 42 -167 107 -167z" />
    <glyph glyph-name="ohungarumlaut" unicode="&#x151;" 
d="M221 571l-34 27c47 54 104 138 137 194l76 -41c-43 -53 -118 -129 -179 -180zM431 571l-35 27c47 54 102 132 134 189l78 -37c-43 -54 -116 -129 -177 -179zM54 188c0 172 114 314 263 314c108 0 180 -71 180 -200c0 -174 -116 -313 -264 -313c-109 0 -179 70 -179 199z
M417 291c0 92 -41 146 -113 146c-102 0 -171 -112 -171 -238c0 -92 41 -145 113 -145c101 0 171 110 171 237z" />
    <glyph glyph-name="Omacron" unicode="&#x14c;" 
d="M559 817l-13 -66h-330l13 66h330zM350 632c106 0 180 -76 180 -233c0 -208 -121 -411 -290 -411c-106 0 -180 75 -180 232c0 208 121 412 290 412zM251 58c115 0 195 171 195 337c0 113 -42 167 -107 167c-115 0 -195 -171 -195 -337c0 -113 42 -167 107 -167z" />
    <glyph glyph-name="omacron" unicode="&#x14d;" 
d="M526 685l-13 -66h-330l13 66h330zM54 188c0 172 114 314 263 314c108 0 180 -71 180 -200c0 -174 -116 -313 -264 -313c-109 0 -179 70 -179 199zM417 291c0 92 -41 146 -113 146c-102 0 -171 -112 -171 -238c0 -92 41 -145 113 -145c101 0 171 110 171 237z" />
    <glyph glyph-name="Oslash" unicode="&#xd8;" 
d="M145 231c0 -28 2 -52 7 -73l266 359c-19 32 -48 47 -83 47c-112 0 -190 -167 -190 -333zM255 56c113 0 190 167 190 334c0 28 -2 53 -7 75l-267 -361c19 -32 47 -48 84 -48zM243 -13c-48 0 -88 15 -119 46l-52 -70l-48 32l66 88c-18 37 -28 85 -28 145
c0 207 119 405 285 405c48 0 88 -15 119 -46l52 70l47 -32l-65 -86c18 -38 28 -87 28 -147c0 -206 -118 -405 -285 -405z" />
    <glyph glyph-name="oslash" unicode="&#xf8;" 
d="M132 199c0 -26 3 -49 10 -69l243 273c-20 23 -47 35 -81 35c-102 0 -172 -112 -172 -239zM246 53c101 0 172 110 172 239c0 24 -3 46 -9 65l-241 -272c19 -21 45 -32 78 -32zM233 -11c-46 0 -85 13 -115 37l-55 -61l-45 34l64 69c-18 32 -28 72 -28 120
c0 172 114 314 263 314c47 0 87 -13 118 -39l54 60l45 -34l-64 -70c18 -31 27 -70 27 -117c0 -174 -116 -313 -264 -313z" />
    <glyph glyph-name="Oslashacute" unicode="&#x1fe;" 
d="M252 737c65 39 159 113 216 169l55 -63c-67 -51 -180 -109 -255 -141zM145 231c0 -28 2 -52 7 -73l266 359c-19 32 -48 47 -83 47c-112 0 -190 -167 -190 -333zM255 56c113 0 190 167 190 334c0 28 -2 53 -7 75l-267 -361c19 -32 47 -48 84 -48zM243 -13
c-48 0 -88 15 -119 46l-52 -70l-48 32l66 88c-18 37 -28 85 -28 145c0 207 119 405 285 405c48 0 88 -15 119 -46l52 70l47 -32l-65 -86c18 -38 28 -87 28 -147c0 -206 -118 -405 -285 -405z" />
    <glyph glyph-name="oslashacute" unicode="&#x1ff;" 
d="M220 605c65 39 159 113 216 169l55 -63c-67 -51 -180 -109 -255 -141zM132 199c0 -26 3 -49 10 -69l243 273c-20 23 -47 35 -81 35c-102 0 -172 -112 -172 -239zM246 53c101 0 172 110 172 239c0 24 -3 46 -9 65l-241 -272c19 -21 45 -32 78 -32zM233 -11
c-46 0 -85 13 -115 37l-55 -61l-45 34l64 69c-18 32 -28 72 -28 120c0 172 114 314 263 314c47 0 87 -13 118 -39l54 60l45 -34l-64 -70c18 -31 27 -70 27 -117c0 -174 -116 -313 -264 -313z" />
    <glyph glyph-name="Otilde" unicode="&#xd5;" 
d="M463 772c27 0 58 42 94 100l40 -24c-49 -84 -99 -136 -150 -136c-67 0 -90 102 -133 102c-27 0 -57 -37 -94 -95l-40 23c49 85 100 133 150 133c67 0 90 -103 133 -103zM350 632c106 0 180 -76 180 -233c0 -208 -121 -411 -290 -411c-106 0 -180 75 -180 232
c0 208 121 412 290 412zM251 58c115 0 195 171 195 337c0 113 -42 167 -107 167c-115 0 -195 -171 -195 -337c0 -113 42 -167 107 -167z" />
    <glyph glyph-name="otilde" unicode="&#xf5;" 
d="M431 640c27 0 58 42 94 100l40 -24c-49 -84 -99 -136 -150 -136c-67 0 -90 102 -133 102c-27 0 -57 -37 -94 -95l-40 23c49 85 100 133 150 133c67 0 90 -103 133 -103zM54 188c0 172 114 314 263 314c108 0 180 -71 180 -200c0 -174 -116 -313 -264 -313
c-109 0 -179 70 -179 199zM417 291c0 92 -41 146 -113 146c-102 0 -171 -112 -171 -238c0 -92 41 -145 113 -145c101 0 171 110 171 237z" />
    <glyph glyph-name="Racute" unicode="&#x154;" 
d="M236 730c65 39 159 113 216 169l55 -63c-67 -51 -180 -109 -255 -141zM401 -6l-163 283l1 3c142 63 200 115 200 185c0 69 -67 105 -203 89l-108 -554h-80l120 618c258 34 352 -38 352 -137c0 -91 -70 -158 -187 -215l156 -260z" />
    <glyph glyph-name="racute" unicode="&#x155;" 
d="M260 612c65 39 159 113 216 169l55 -63c-67 -51 -180 -109 -255 -141zM507 29c-216 -96 -287 -23 -116 375c-55 -16 -111 -26 -158 -27c-34 -70 -93 -151 -158 -220l-31 29c61 73 104 133 133 196c-30 7 -49 22 -49 46c0 41 50 96 98 96c23 0 38 -16 38 -44
c0 -12 -2 -25 -6 -39c61 7 135 27 199 56l37 -21c-174 -424 -144 -454 6 -405z" />
    <glyph glyph-name="Rcaron" unicode="&#x158;" 
d="M352 692h-4l-140 150l54 42l102 -116l157 112l36 -42zM401 -6l-163 283l1 3c142 63 200 115 200 185c0 69 -67 105 -203 89l-108 -554h-80l120 618c258 34 352 -38 352 -137c0 -91 -70 -158 -187 -215l156 -260z" />
    <glyph glyph-name="rcaron" unicode="&#x159;" 
d="M365 574h-4l-140 150l54 42l102 -116l157 112l36 -42zM507 29c-216 -96 -287 -23 -116 375c-55 -16 -111 -26 -158 -27c-34 -70 -93 -151 -158 -220l-31 29c61 73 104 133 133 196c-30 7 -49 22 -49 46c0 41 50 96 98 96c23 0 38 -16 38 -44c0 -12 -2 -25 -6 -39
c61 7 135 27 199 56l37 -21c-174 -424 -144 -454 6 -405z" />
    <glyph glyph-name="Rcommaaccent" unicode="&#x156;" 
d="M401 -6l-163 283l1 3c142 63 200 115 200 185c0 69 -67 105 -203 89l-108 -554h-80l120 618c258 34 352 -38 352 -137c0 -91 -70 -158 -187 -215l156 -260zM145 -265c44 68 48 130 38 188l102 3c-3 -70 -39 -144 -109 -207z" />
    <glyph glyph-name="rcommaaccent" unicode="&#x157;" 
d="M507 29c-216 -96 -287 -23 -116 375c-55 -16 -111 -26 -158 -27c-34 -70 -93 -151 -158 -220l-31 29c61 73 104 133 133 196c-30 7 -49 22 -49 46c0 41 50 96 98 96c23 0 38 -16 38 -44c0 -12 -2 -25 -6 -39c61 7 135 27 199 56l37 -21c-174 -424 -144 -454 6 -405z
M113 -248c44 68 48 130 38 188l102 3c-3 -70 -39 -144 -109 -207z" />
    <glyph glyph-name="Sacute" unicode="&#x15a;" 
d="M252 735c65 39 159 113 216 169l55 -63c-67 -51 -180 -109 -255 -141zM512 460l-72 -14c-14 82 -52 117 -119 117c-68 0 -116 -48 -116 -104c0 -115 256 -175 256 -314c0 -101 -121 -197 -432 -131l16 80c250 -64 333 -17 333 44c0 102 -255 166 -255 311
c0 95 90 182 217 182c103 0 156 -60 172 -171z" />
    <glyph glyph-name="sacute" unicode="&#x15b;" 
d="M231 634c65 39 159 113 216 169l55 -63c-67 -51 -180 -109 -255 -141zM463 130c0 -78 -73 -151 -344 -137l2 72c216 -18 265 13 265 60c0 54 -77 119 -121 194c-43 -37 -100 -78 -172 -121l-21 36c84 58 136 99 170 136c-4 14 -6 28 -6 43c0 60 54 118 104 118
c56 0 69 -60 -13 -153c31 -78 136 -165 136 -248z" />
    <glyph glyph-name="Scaron" unicode="&#x160;" 
d="M368 697h-4l-140 150l54 42l102 -116l157 112l36 -42zM512 460l-72 -14c-14 82 -52 117 -119 117c-68 0 -116 -48 -116 -104c0 -115 256 -175 256 -314c0 -101 -121 -197 -432 -131l16 80c250 -64 333 -17 333 44c0 102 -255 166 -255 311c0 95 90 182 217 182
c103 0 156 -60 172 -171z" />
    <glyph glyph-name="scaron" unicode="&#x161;" 
d="M347 596h-4l-140 150l54 42l102 -116l157 112l36 -42zM463 130c0 -78 -73 -151 -344 -137l2 72c216 -18 265 13 265 60c0 54 -77 119 -121 194c-43 -37 -100 -78 -172 -121l-21 36c84 58 136 99 170 136c-4 14 -6 28 -6 43c0 60 54 118 104 118c56 0 69 -60 -13 -153
c31 -78 136 -165 136 -248z" />
    <glyph glyph-name="Scedilla" unicode="&#x15e;" 
d="M255 -184c6 95 -16 132 -50 132c-33 0 -64 -39 -96 -104l-42 13c30 72 63 117 100 137c-41 3 -87 9 -138 20l16 80c250 -64 333 -17 333 44c0 102 -255 166 -255 311c0 95 90 182 217 182c103 0 156 -60 172 -171l-72 -14c-14 82 -52 117 -119 117
c-68 0 -116 -48 -116 -104c0 -115 256 -175 256 -314c0 -70 -59 -138 -199 -151c42 -23 69 -80 63 -176z" />
    <glyph glyph-name="scedilla" unicode="&#x15f;" 
d="M279 -184c6 95 -16 132 -50 132c-33 0 -64 -39 -96 -104l-42 13c29 69 60 113 95 134c-21 0 -43 1 -67 2l2 72c216 -18 265 13 265 60c0 54 -77 119 -121 194c-43 -37 -100 -78 -172 -121l-21 36c84 58 136 99 170 136c-4 14 -6 28 -6 43c0 60 54 118 104 118
c56 0 69 -60 -13 -153c31 -78 136 -165 136 -248c0 -59 -42 -116 -182 -133c45 -21 74 -79 68 -179z" />
    <glyph glyph-name="Scommaaccent" unicode="&#x218;" 
d="M512 460l-72 -14c-14 82 -52 117 -119 117c-68 0 -116 -48 -116 -104c0 -115 256 -175 256 -314c0 -101 -121 -197 -432 -131l16 80c250 -64 333 -17 333 44c0 102 -255 166 -255 311c0 95 90 182 217 182c103 0 156 -60 172 -171zM115 -267c44 68 48 130 38 188l102 3
c-3 -70 -39 -144 -109 -207z" />
    <glyph glyph-name="scommaaccent" unicode="&#x219;" 
d="M463 130c0 -78 -73 -151 -344 -137l2 72c216 -18 265 13 265 60c0 54 -77 119 -121 194c-43 -37 -100 -78 -172 -121l-21 36c84 58 136 99 170 136c-4 14 -6 28 -6 43c0 60 54 118 104 118c56 0 69 -60 -13 -153c31 -78 136 -165 136 -248zM121 -268c44 68 48 130 38 188
l102 3c-3 -70 -39 -144 -109 -207z" />
    <glyph glyph-name="Tcaron" unicode="&#x164;" 
d="M358 685h-4l-140 150l54 42l102 -116l157 112l36 -42zM375 550l-107 -550h-81l107 550h-192l13 70h465l-13 -70h-192z" />
    <glyph glyph-name="tcaron" unicode="&#x165;" 
d="M444 829l90 5c-5 -86 -33 -167 -108 -254l-34 15c53 90 56 159 52 234zM459 52c-255 -129 -340 -47 -303 113l58 262h-93l16 61h63l77 138l60 5l-32 -143h189l-12 -61h-191l-58 -258c-25 -109 9 -147 218 -76z" />
    <glyph glyph-name="Tcommaaccent" unicode="&#x162;" 
d="M375 550l-107 -550h-81l107 550h-192l13 70h465l-13 -70h-192zM125 -259c44 68 48 130 38 188l102 3c-3 -70 -39 -144 -109 -207z" />
    <glyph glyph-name="tcommaaccent" unicode="&#x163;" 
d="M459 52c-255 -129 -340 -47 -303 113l58 262h-93l16 61h63l77 138l60 5l-32 -143h189l-12 -61h-191l-58 -258c-25 -109 9 -147 218 -76zM139 -271c44 68 48 130 38 188l102 3c-3 -70 -39 -144 -109 -207z" />
    <glyph glyph-name="Uacute" unicode="&#xda;" 
d="M249 723c65 39 159 113 216 169l55 -63c-67 -51 -180 -109 -255 -141zM160 221c-23 -114 12 -164 93 -164c72 0 118 45 137 143l82 420h81l-82 -418c-28 -147 -110 -216 -227 -216c-129 0 -196 76 -166 234l78 400h81z" />
    <glyph glyph-name="uacute" unicode="&#xfa;" 
d="M231 596c65 39 159 113 216 169l55 -63c-67 -51 -180 -109 -255 -141zM519 37c-146 -85 -187 -47 -169 67c-66 -76 -125 -115 -184 -115c-73 0 -110 58 -81 184l37 166l-43 26l75 123l78 5l-70 -312c-19 -85 0 -118 43 -118c45 0 96 36 158 108l62 319h76l-71 -363
c-14 -69 -9 -86 80 -50z" />
    <glyph glyph-name="Ubreve" unicode="&#x16c;" 
d="M538 867l45 -28c-69 -91 -141 -144 -212 -144c-68 0 -121 47 -159 146l60 31c34 -82 66 -114 115 -114c52 0 95 40 151 109zM160 221c-23 -114 12 -164 93 -164c72 0 118 45 137 143l82 420h81l-82 -418c-28 -147 -110 -216 -227 -216c-129 0 -196 76 -166 234l78 400h81
z" />
    <glyph glyph-name="ubreve" unicode="&#x16d;" 
d="M520 740l45 -28c-69 -91 -141 -144 -212 -144c-68 0 -121 47 -159 146l60 31c34 -82 66 -114 115 -114c52 0 95 40 151 109zM519 37c-146 -85 -187 -47 -169 67c-66 -76 -125 -115 -184 -115c-73 0 -110 58 -81 184l37 166l-43 26l75 123l78 5l-70 -312
c-19 -85 0 -118 43 -118c45 0 96 36 158 108l62 319h76l-71 -363c-14 -69 -9 -86 80 -50z" />
    <glyph glyph-name="Ucircumflex" unicode="&#xdb;" 
d="M496 688l-101 115l-158 -111l-35 41l205 147h4l139 -150zM160 221c-23 -114 12 -164 93 -164c72 0 118 45 137 143l82 420h81l-82 -418c-28 -147 -110 -216 -227 -216c-129 0 -196 76 -166 234l78 400h81z" />
    <glyph glyph-name="ucircumflex" unicode="&#xfb;" 
d="M479 561l-101 115l-158 -111l-35 41l205 147h4l139 -150zM519 37c-146 -85 -187 -47 -169 67c-66 -76 -125 -115 -184 -115c-73 0 -110 58 -81 184l37 166l-43 26l75 123l78 5l-70 -312c-19 -85 0 -118 43 -118c45 0 96 36 158 108l62 319h76l-71 -363
c-14 -69 -9 -86 80 -50z" />
    <glyph glyph-name="Udieresis" unicode="&#xdc;" 
d="M511 703l-81 -1l31 132l90 2zM296 701l-81 -1l32 132l89 1zM160 221c-23 -114 12 -164 93 -164c72 0 118 45 137 143l82 420h81l-82 -418c-28 -147 -110 -216 -227 -216c-129 0 -196 76 -166 234l78 400h81z" />
    <glyph glyph-name="udieresis" unicode="&#xfc;" 
d="M493 576l-81 -1l31 132l90 2zM278 574l-81 -1l32 132l89 1zM519 37c-146 -85 -187 -47 -169 67c-66 -76 -125 -115 -184 -115c-73 0 -110 58 -81 184l37 166l-43 26l75 123l78 5l-70 -312c-19 -85 0 -118 43 -118c45 0 96 36 158 108l62 319h76l-71 -363
c-14 -69 -9 -86 80 -50z" />
    <glyph glyph-name="Ugrave" unicode="&#xd9;" 
d="M490 715l-20 -33c-63 33 -162 100 -220 153l53 62c50 -59 130 -138 187 -182zM160 221c-23 -114 12 -164 93 -164c72 0 118 45 137 143l82 420h81l-82 -418c-28 -147 -110 -216 -227 -216c-129 0 -196 76 -166 234l78 400h81z" />
    <glyph glyph-name="ugrave" unicode="&#xf9;" 
d="M472 588l-20 -33c-63 33 -162 100 -220 153l53 62c50 -59 130 -138 187 -182zM519 37c-146 -85 -187 -47 -169 67c-66 -76 -125 -115 -184 -115c-73 0 -110 58 -81 184l37 166l-43 26l75 123l78 5l-70 -312c-19 -85 0 -118 43 -118c45 0 96 36 158 108l62 319h76
l-71 -363c-14 -69 -9 -86 80 -50z" />
    <glyph glyph-name="Uhungarumlaut" unicode="&#x170;" 
d="M251 689l-34 27c47 54 104 138 137 194l76 -41c-43 -53 -118 -129 -179 -180zM461 689l-35 27c47 54 102 132 134 189l78 -37c-43 -54 -116 -129 -177 -179zM160 221c-23 -114 12 -164 93 -164c72 0 118 45 137 143l82 420h81l-82 -418c-28 -147 -110 -216 -227 -216
c-129 0 -196 76 -166 234l78 400h81z" />
    <glyph glyph-name="uhungarumlaut" unicode="&#x171;" 
d="M233 562l-34 27c47 54 104 138 137 194l76 -41c-43 -53 -118 -129 -179 -180zM443 562l-35 27c47 54 102 132 134 189l78 -37c-43 -54 -116 -129 -177 -179zM519 37c-146 -85 -187 -47 -169 67c-66 -76 -125 -115 -184 -115c-73 0 -110 58 -81 184l37 166l-43 26l75 123
l78 5l-70 -312c-19 -85 0 -118 43 -118c45 0 96 36 158 108l62 319h76l-71 -363c-14 -69 -9 -86 80 -50z" />
    <glyph glyph-name="Umacron" unicode="&#x16a;" 
d="M555 803l-13 -66h-330l13 66h330zM160 221c-23 -114 12 -164 93 -164c72 0 118 45 137 143l82 420h81l-82 -418c-28 -147 -110 -216 -227 -216c-129 0 -196 76 -166 234l78 400h81z" />
    <glyph glyph-name="umacron" unicode="&#x16b;" 
d="M538 676l-13 -66h-330l13 66h330zM519 37c-146 -85 -187 -47 -169 67c-66 -76 -125 -115 -184 -115c-73 0 -110 58 -81 184l37 166l-43 26l75 123l78 5l-70 -312c-19 -85 0 -118 43 -118c45 0 96 36 158 108l62 319h76l-71 -363c-14 -69 -9 -86 80 -50z" />
    <glyph glyph-name="Uogonek" unicode="&#x172;" 
d="M337 -167c-148 -76 -227 -36 -227 26c0 40 38 84 119 127c-119 6 -180 82 -151 234l78 400h81l-77 -399c-23 -114 12 -164 93 -164c72 0 118 45 137 143l82 420h81l-82 -418c-19 -100 -63 -163 -128 -195c-116 -57 -160 -91 -160 -126c0 -33 41 -50 144 -11z" />
    <glyph glyph-name="uogonek" unicode="&#x173;" 
d="M488 -167c-149 -76 -227 -35 -227 26c0 45 35 95 119 143c-30 11 -39 45 -30 102c-67 -75 -128 -115 -184 -115c-73 0 -110 58 -81 184l37 166l-43 26l75 123l78 5l-70 -312c-19 -85 0 -118 43 -118c45 0 96 36 158 108l62 319h76l-71 -363c-14 -69 -9 -86 80 -50l9 -40
c-143 -65 -185 -116 -185 -156c0 -33 41 -50 144 -11z" />
    <glyph glyph-name="Uring" unicode="&#x16e;" 
d="M394 887c74 0 125 -44 125 -98c0 -60 -59 -112 -140 -112c-74 0 -125 44 -125 99c0 61 59 111 140 111zM160 221c-23 -114 12 -164 93 -164c72 0 118 45 137 143l82 420h81l-82 -418c-28 -147 -110 -216 -227 -216c-129 0 -196 76 -166 234l78 400h81z" />
    <glyph glyph-name="uring" unicode="&#x16f;" 
d="M376 760c74 0 125 -44 125 -98c0 -60 -59 -112 -140 -112c-74 0 -125 44 -125 99c0 61 59 111 140 111zM519 37c-146 -85 -187 -47 -169 67c-66 -76 -125 -115 -184 -115c-73 0 -110 58 -81 184l37 166l-43 26l75 123l78 5l-70 -312c-19 -85 0 -118 43 -118
c45 0 96 36 158 108l62 319h76l-71 -363c-14 -69 -9 -86 80 -50z" />
    <glyph glyph-name="Wacute" unicode="&#x1e82;" 
d="M252 723c65 39 159 113 216 169l55 -63c-67 -51 -180 -109 -255 -141zM324 0l-23 327l-149 -327h-85c5 118 29 354 68 620h80c-19 -125 -66 -453 -71 -515h4l151 331h49l23 -331h3c19 62 99 390 128 515h78c-64 -267 -131 -503 -170 -620h-86z" />
    <glyph glyph-name="wacute" unicode="&#x1e83;" 
d="M226 592c65 39 159 113 216 169l55 -63c-67 -51 -180 -109 -255 -141zM324 0l-40 264l-141 -264h-76c4 117 20 306 45 489h79c-22 -139 -36 -257 -53 -390h3l140 267h49l38 -268h4c36 137 66 254 97 391h82c-44 -162 -90 -309 -153 -489h-74z" />
    <glyph glyph-name="Wcircumflex" unicode="&#x174;" 
d="M499 688l-101 115l-158 -111l-35 41l205 147h4l139 -150zM324 0l-23 327l-149 -327h-85c5 118 29 354 68 620h80c-19 -125 -66 -453 -71 -515h4l151 331h49l23 -331h3c19 62 99 390 128 515h78c-64 -267 -131 -503 -170 -620h-86z" />
    <glyph glyph-name="wcircumflex" unicode="&#x175;" 
d="M473 557l-101 115l-158 -111l-35 41l205 147h4l139 -150zM324 0l-40 264l-141 -264h-76c4 117 20 306 45 489h79c-22 -139 -36 -257 -53 -390h3l140 267h49l38 -268h4c36 137 66 254 97 391h82c-44 -162 -90 -309 -153 -489h-74z" />
    <glyph glyph-name="Wdieresis" unicode="&#x1e84;" 
d="M514 703l-81 -1l31 132l90 2zM299 701l-81 -1l32 132l89 1zM324 0l-23 327l-149 -327h-85c5 118 29 354 68 620h80c-19 -125 -66 -453 -71 -515h4l151 331h49l23 -331h3c19 62 99 390 128 515h78c-64 -267 -131 -503 -170 -620h-86z" />
    <glyph glyph-name="wdieresis" unicode="&#x1e85;" 
d="M488 572l-81 -1l31 132l90 2zM273 570l-81 -1l32 132l89 1zM324 0l-40 264l-141 -264h-76c4 117 20 306 45 489h79c-22 -139 -36 -257 -53 -390h3l140 267h49l38 -268h4c36 137 66 254 97 391h82c-44 -162 -90 -309 -153 -489h-74z" />
    <glyph glyph-name="Wgrave" unicode="&#x1e80;" 
d="M493 715l-20 -33c-63 33 -162 100 -220 153l53 62c50 -59 130 -138 187 -182zM324 0l-23 327l-149 -327h-85c5 118 29 354 68 620h80c-19 -125 -66 -453 -71 -515h4l151 331h49l23 -331h3c19 62 99 390 128 515h78c-64 -267 -131 -503 -170 -620h-86z" />
    <glyph glyph-name="wgrave" unicode="&#x1e81;" 
d="M467 584l-20 -33c-63 33 -162 100 -220 153l53 62c50 -59 130 -138 187 -182zM324 0l-40 264l-141 -264h-76c4 117 20 306 45 489h79c-22 -139 -36 -257 -53 -390h3l140 267h49l38 -268h4c36 137 66 254 97 391h82c-44 -162 -90 -309 -153 -489h-74z" />
    <glyph glyph-name="Yacute" unicode="&#xdd;" 
d="M244 725c65 39 159 113 216 169l55 -63c-67 -51 -180 -109 -255 -141zM269 0h-81l40 209l-123 409l83 4l97 -336l222 334h87l-286 -417z" />
    <glyph glyph-name="yacute" unicode="&#xfd;" 
d="M228 602c65 39 159 113 216 169l55 -63c-67 -51 -180 -109 -255 -141zM419 -82c-31 -62 -133 -101 -365 -89l11 78c188 -16 266 2 287 22c24 25 13 99 11 209c-56 -61 -131 -111 -200 -111c-93 0 -149 91 -10 462l76 2c-118 -328 -87 -393 -26 -393c43 0 106 39 161 101
c9 136 71 300 101 300c21 0 54 -10 54 -26c0 -37 -38 -171 -88 -269c-1 -9 -1 -18 -1 -28c0 -114 16 -205 -11 -258z" />
    <glyph glyph-name="Ycircumflex" unicode="&#x176;" 
d="M492 690l-101 115l-158 -111l-35 41l205 147h4l139 -150zM269 0h-81l40 209l-123 409l83 4l97 -336l222 334h87l-286 -417z" />
    <glyph glyph-name="ycircumflex" unicode="&#x177;" 
d="M475 567l-101 115l-158 -111l-35 41l205 147h4l139 -150zM419 -82c-31 -62 -133 -101 -365 -89l11 78c188 -16 266 2 287 22c24 25 13 99 11 209c-56 -61 -131 -111 -200 -111c-93 0 -149 91 -10 462l76 2c-118 -328 -87 -393 -26 -393c43 0 106 39 161 101
c9 136 71 300 101 300c21 0 54 -10 54 -26c0 -37 -38 -171 -88 -269c-1 -9 -1 -18 -1 -28c0 -114 16 -205 -11 -258z" />
    <glyph glyph-name="Ydieresis" unicode="&#x178;" 
d="M506 705l-81 -1l31 132l90 2zM291 703l-81 -1l32 132l89 1zM269 0h-81l40 209l-123 409l83 4l97 -336l222 334h87l-286 -417z" />
    <glyph glyph-name="ydieresis" unicode="&#xff;" 
d="M490 582l-81 -1l31 132l90 2zM275 580l-81 -1l32 132l89 1zM419 -82c-31 -62 -133 -101 -365 -89l11 78c188 -16 266 2 287 22c24 25 13 99 11 209c-56 -61 -131 -111 -200 -111c-93 0 -149 91 -10 462l76 2c-118 -328 -87 -393 -26 -393c43 0 106 39 161 101
c9 136 71 300 101 300c21 0 54 -10 54 -26c0 -37 -38 -171 -88 -269c-1 -9 -1 -18 -1 -28c0 -114 16 -205 -11 -258z" />
    <glyph glyph-name="Ygrave" unicode="&#x1ef2;" 
d="M485 717l-20 -33c-63 33 -162 100 -220 153l53 62c50 -59 130 -138 187 -182zM269 0h-81l40 209l-123 409l83 4l97 -336l222 334h87l-286 -417z" />
    <glyph glyph-name="ygrave" unicode="&#x1ef3;" 
d="M469 594l-20 -33c-63 33 -162 100 -220 153l53 62c50 -59 130 -138 187 -182zM419 -82c-31 -62 -133 -101 -365 -89l11 78c188 -16 266 2 287 22c24 25 13 99 11 209c-56 -61 -131 -111 -200 -111c-93 0 -149 91 -10 462l76 2c-118 -328 -87 -393 -26 -393
c43 0 106 39 161 101c9 136 71 300 101 300c21 0 54 -10 54 -26c0 -37 -38 -171 -88 -269c-1 -9 -1 -18 -1 -28c0 -114 16 -205 -11 -258z" />
    <glyph glyph-name="Zacute" unicode="&#x179;" 
d="M244 723c65 39 159 113 216 169l55 -63c-67 -51 -180 -109 -255 -141zM437 0h-414l12 69l414 481l-314 -1l14 71h403l-12 -69l-411 -481l321 1z" />
    <glyph glyph-name="zacute" unicode="&#x17a;" 
d="M221 593c65 39 159 113 216 169l55 -63c-67 -51 -180 -109 -255 -141zM426 0h-395l13 66l372 357l-300 -2l19 69h384l-13 -66l-372 -357l311 2z" />
    <glyph glyph-name="Zcaron" unicode="&#x17d;" 
d="M360 685h-4l-140 150l54 42l102 -116l157 112l36 -42zM437 0h-414l12 69l414 481l-314 -1l14 71h403l-12 -69l-411 -481l321 1z" />
    <glyph glyph-name="zcaron" unicode="&#x17e;" 
d="M337 555h-4l-140 150l54 42l102 -116l157 112l36 -42zM426 0h-395l13 66l372 357l-300 -2l19 69h384l-13 -66l-372 -357l311 2z" />
    <glyph glyph-name="Zdotaccent" unicode="&#x17b;" 
d="M399 702l-82 -1l32 132l91 1zM437 0h-414l12 69l414 481l-314 -1l14 71h403l-12 -69l-411 -481l321 1z" />
    <glyph glyph-name="zdotaccent" unicode="&#x17c;" 
d="M376 572l-82 -1l32 132l91 1zM426 0h-395l13 66l372 357l-300 -2l19 69h384l-13 -66l-372 -357l311 2z" />
    <glyph glyph-name="AE" unicode="&#xc6;" 
d="M339 552l-156 -309h105l60 309h-9zM241 0l35 183h-123c-31 -61 -61 -122 -92 -183h-82c107 205 216 413 326 620h294l-13 -68h-166l-41 -210h138l-11 -57h-138l-43 -217h170l-18 -68h-236z" />
    <glyph glyph-name="ae" unicode="&#xe6;" 
d="M445 434c-55 0 -103 -100 -121 -202c106 19 159 94 159 155c0 30 -12 47 -38 47zM147 64c30 0 63 34 96 78c0 98 30 195 77 264c-28 21 -52 27 -72 27c-77 0 -136 -156 -136 -291c0 -52 12 -78 35 -78zM514 57c-159 -105 -243 -70 -265 25c-42 -51 -89 -89 -139 -89
c-48 0 -77 42 -77 130c0 184 101 373 231 373c37 0 73 -12 107 -34c28 23 60 37 94 37c59 0 91 -39 91 -98c0 -99 -78 -192 -238 -214c-1 -11 -1 -22 -1 -33c0 -98 46 -124 189 -56z" />
    <glyph glyph-name="AEacute" unicode="&#x1fc;" 
d="M340 723c65 39 159 113 216 169l55 -63c-67 -51 -180 -109 -255 -141zM339 552l-156 -309h105l60 309h-9zM241 0l35 183h-123c-31 -61 -61 -122 -92 -183h-82c107 205 216 413 326 620h294l-13 -68h-166l-41 -210h138l-11 -57h-138l-43 -217h170l-18 -68h-236z" />
    <glyph glyph-name="aeacute" unicode="&#x1fd;" 
d="M245 597c65 39 159 113 216 169l55 -63c-67 -51 -180 -109 -255 -141zM445 434c-55 0 -103 -100 -121 -202c106 19 159 94 159 155c0 30 -12 47 -38 47zM147 64c30 0 63 34 96 78c0 98 30 195 77 264c-28 21 -52 27 -72 27c-77 0 -136 -156 -136 -291
c0 -52 12 -78 35 -78zM514 57c-159 -105 -243 -70 -265 25c-42 -51 -89 -89 -139 -89c-48 0 -77 42 -77 130c0 184 101 373 231 373c37 0 73 -12 107 -34c28 23 60 37 94 37c59 0 91 -39 91 -98c0 -99 -78 -192 -238 -214c-1 -11 -1 -22 -1 -33c0 -98 46 -124 189 -56z" />
    <glyph glyph-name="OE" unicode="&#x152;" 
d="M134 210c0 -100 42 -140 117 -142l94 484c-168 -4 -211 -243 -211 -342zM492 68l-19 -68h-208c-126 0 -212 47 -212 207c0 143 68 413 341 413h201l-12 -68h-165l-41 -210h137l-12 -57h-136l-42 -217h168z" />
    <glyph glyph-name="oe" unicode="&#x153;" 
d="M280 346c0 57 -15 90 -47 90c-65 0 -123 -176 -123 -287c0 -62 20 -95 51 -95c67 0 119 178 119 292zM453 433c-54 0 -99 -100 -115 -200c97 17 151 82 151 150c0 32 -14 50 -36 50zM519 59c-148 -109 -225 -74 -245 25c-36 -56 -82 -93 -133 -93c-65 0 -106 53 -106 160
c0 167 92 348 211 348c51 0 83 -36 95 -97c36 58 83 97 135 97c53 0 86 -38 86 -103c0 -104 -80 -189 -230 -210c-1 -10 -1 -20 -1 -30c0 -96 46 -125 176 -60z" />
    <glyph glyph-name="Eth" unicode="&#xd0;" 
d="M522 384c0 -228 -147 -427 -479 -384l55 285h-70l11 58h71l53 275c233 39 359 -40 359 -234zM308 285h-129l-43 -221c206 -17 305 135 305 311c0 139 -72 197 -209 182l-42 -214h132z" />
    <glyph glyph-name="eth" unicode="&#xf0;" 
d="M242 -12c-114 0 -187 79 -187 194c0 149 111 277 262 277c24 0 51 -3 78 -10c-14 35 -33 68 -59 101l-149 -41l-14 48l127 35c-24 26 -52 51 -84 76l59 44c40 -32 74 -64 103 -98l117 33l12 -49l-95 -26c59 -81 88 -167 88 -261c0 -197 -108 -323 -258 -323zM257 52
c102 0 166 106 166 248c0 23 -2 46 -5 68c-47 19 -93 27 -122 27c-94 0 -162 -93 -162 -196c0 -88 49 -147 123 -147z" />
    <glyph glyph-name="Thorn" unicode="&#xde;" 
d="M133 0h-81l121 620h81l-18 -94c203 9 286 -66 286 -168c0 -142 -137 -237 -370 -258zM442 345c0 77 -69 126 -220 110l-55 -281c179 -1 275 68 275 171z" />
    <glyph glyph-name="thorn" unicode="&#xfe;" 
d="M241 55c101 0 180 131 180 263c0 75 -31 110 -70 110c-44 0 -109 -41 -157 -90l-52 -266c39 -11 75 -17 99 -17zM95 -170l-77 -6l170 873l77 6l-59 -302c57 55 127 101 182 101c62 0 110 -55 110 -164c0 -180 -120 -349 -296 -349c-23 0 -47 2 -75 7z" />
    <glyph glyph-name="schwa" unicode="&#x259;" 
d="M192 -12c-86 0 -139 45 -139 117c0 114 129 184 358 201c0 129 -94 162 -321 87l-10 42c265 135 407 45 407 -119c0 -155 -126 -328 -295 -328zM211 53c106 0 179 103 196 206c-169 -12 -279 -57 -279 -139c0 -39 32 -67 83 -67z" />
    <glyph glyph-name="germandbls" unicode="&#xdf;" 
d="M205 -7l9 73c148 -16 202 11 202 61c0 48 -44 109 -151 197c116 112 163 174 163 237c0 43 -25 74 -74 74c-66 0 -116 -58 -137 -169l-91 -466h-78l90 461c29 149 119 240 238 240c90 0 131 -55 131 -121c0 -75 -52 -150 -149 -240c84 -71 136 -139 136 -202
c0 -83 -75 -157 -289 -145z" />
    <glyph glyph-name="zero" unicode="0" 
d="M60 218c0 217 122 414 282 414c104 0 174 -78 174 -229c0 -217 -122 -415 -283 -415c-104 0 -173 77 -173 230zM328 566c-102 0 -177 -147 -189 -299l298 154c-6 97 -46 145 -109 145zM248 54c103 0 178 149 189 302l-298 -155c5 -98 45 -147 109 -147z" />
    <glyph glyph-name="zero.alt" 
d="M60 220c0 215 122 412 282 412c104 0 174 -78 174 -231c0 -215 -122 -413 -283 -413c-104 0 -173 77 -173 232zM137 227c0 -116 42 -171 110 -171c112 0 192 171 192 337c0 115 -42 171 -110 171c-112 0 -192 -171 -192 -337z" />
    <glyph glyph-name="one" unicode="1" 
d="M441 0h-389l14 67h166l83 427l-157 -7l9 57l161 19l15 76l77 6l-111 -578h151z" />
    <glyph glyph-name="two" unicode="2" 
d="M437 0h-394l-1 62c240 163 378 267 378 381c0 83 -70 129 -271 98l12 75c223 35 338 -25 338 -153c0 -137 -126 -243 -349 -394h301z" />
    <glyph glyph-name="three" unicode="3" 
d="M471 172c0 -94 -101 -201 -417 -172l9 75c269 -31 333 28 333 85c0 54 -61 105 -240 148l5 37l273 206h-278l13 69h360l-8 -66l-270 -206c164 -44 220 -109 220 -176z" />
    <glyph glyph-name="four" unicode="4" 
d="M481 131h-67l-25 -131h-73l26 131h-292l4 52c80 137 134 253 192 444l83 -5c-64 -194 -121 -304 -198 -422h224l42 212l73 7l-42 -219h74z" />
    <glyph glyph-name="five" unicode="5" 
d="M470 197c0 -106 -112 -223 -418 -197l10 75c257 -26 333 42 333 108c0 60 -65 113 -266 147l69 290h331l-20 -69h-256l-40 -171c195 -39 257 -109 257 -183z" />
    <glyph glyph-name="six" unicode="6" 
d="M255 -11c-107 0 -186 68 -186 209c0 162 102 349 397 442l17 -70c-207 -60 -295 -165 -326 -263c150 130 322 70 322 -94c0 -132 -100 -224 -224 -224zM270 53c83 0 137 65 137 149c0 119 -130 166 -262 51c-1 -13 -2 -26 -2 -38c0 -119 59 -162 127 -162z" />
    <glyph glyph-name="seven" unicode="7" 
d="M183 -5l-80 8c98 184 216 366 356 542v4h-318l15 71h403l-14 -64c-141 -181 -262 -373 -362 -561z" />
    <glyph glyph-name="eight" unicode="8" 
d="M450 148c0 -86 -92 -160 -218 -160c-109 0 -181 54 -181 134c0 59 32 113 175 207c-47 47 -88 96 -88 150c0 93 116 175 329 143l-22 -76c-175 40 -233 -3 -233 -56c0 -38 35 -78 79 -120c57 35 128 75 214 121l25 -48c-81 -43 -146 -80 -199 -111
c60 -57 119 -118 119 -184zM250 52c73 0 127 40 127 90c0 49 -54 98 -110 149c-120 -78 -140 -116 -140 -152c0 -56 54 -87 123 -87z" />
    <glyph glyph-name="nine" unicode="9" 
d="M110 -19l-18 71c206 60 295 164 326 262c-150 -129 -321 -70 -321 95c0 132 101 224 224 224c107 0 186 -68 186 -209c0 -163 -103 -349 -397 -443zM169 420c0 -120 129 -166 261 -52c1 13 2 26 2 38c0 120 -58 162 -126 162c-84 0 -137 -65 -137 -148z" />
    <glyph glyph-name="period" unicode="." 
d="M285 0h-109l22 116h110z" />
    <glyph glyph-name="comma" unicode="," 
d="M115 -157c79 87 95 158 82 274l109 3c-3 -124 -52 -207 -159 -296z" />
    <glyph glyph-name="colon" unicode=":" 
d="M351 330h-110l23 116h110zM282 0h-110l23 116h110z" />
    <glyph glyph-name="colon.alt" 
d="M368 416h-109l23 117h109zM299 86h-110l24 117h110z" />
    <glyph glyph-name="semicolon" unicode=";" 
d="M351 330h-110l23 116h110zM114 -158c78 87 95 157 84 273l108 3c-5 -121 -52 -204 -160 -294z" />
    <glyph glyph-name="ellipsis" unicode="&#x2026;" 
d="M481 0h-96l26 119h96zM298 0h-96l26 119h96zM115 0h-96l26 119h96z" />
    <glyph glyph-name="periodcentered" unicode="&#xb7;" 
d="M326 248h-116l23 116h115z" />
    <glyph glyph-name="ampersand" unicode="&#x26;" 
d="M459 -19c-41 42 -78 85 -109 128c-77 -78 -152 -119 -216 -119c-74 0 -115 46 -115 121c0 100 80 209 208 318v7c0 107 63 204 114 204c32 0 54 -19 54 -52c0 -49 -35 -114 -95 -174c8 -65 30 -128 67 -191c30 42 60 92 90 151l66 -24c-40 -70 -80 -130 -120 -180
c32 -46 72 -91 119 -138zM157 61c42 0 98 31 159 98c-41 66 -69 132 -81 198c-82 -80 -140 -160 -140 -229c0 -43 24 -67 62 -67z" />
    <glyph glyph-name="exclam" unicode="!" 
d="M295 233h-52c17 89 48 350 64 443h102c-22 -93 -95 -354 -114 -443zM272 0h-108l23 110h107z" />
    <glyph glyph-name="exclamdown" unicode="&#xa1;" 
d="M293 620h108l-23 -110h-108zM270 387h53c-18 -89 -48 -350 -65 -443h-102c22 93 95 354 114 443z" />
    <glyph glyph-name="question" unicode="?" 
d="M140 600l16 79c244 -26 360 -81 360 -176c0 -84 -83 -165 -298 -273l-25 43c176 91 234 145 234 202c0 73 -97 103 -287 125zM225 0h-107l22 109h107z" />
    <glyph glyph-name="questiondown" unicode="&#xbf;" 
d="M350 620h107l-23 -109h-107zM435 20l-17 -79c-243 26 -358 81 -358 176c0 84 83 165 298 273l25 -43c-177 -91 -235 -145 -235 -202c0 -73 98 -103 287 -125z" />
    <glyph glyph-name="quotedblleft" unicode="&#x201c;" 
d="M541 669c-77 -87 -93 -156 -80 -272l-108 -4c4 124 53 208 157 295zM328 669c-79 -87 -96 -157 -83 -273l-108 -4c4 124 53 209 159 296z" />
    <glyph glyph-name="quotedblright" unicode="&#x201d;" 
d="M330 390c79 87 96 157 83 273l108 4c-5 -124 -53 -208 -160 -296zM116 390c77 87 94 157 81 273l108 3c-5 -124 -53 -207 -158 -295z" />
    <glyph glyph-name="quoteleft" unicode="&#x2018;" 
d="M432 669c-80 -87 -96 -157 -82 -273l-110 -4c5 124 53 209 160 296z" />
    <glyph glyph-name="quoteright" unicode="&#x2019;" 
d="M221 390c79 87 96 157 82 273l109 4c-4 -124 -52 -208 -159 -296z" />
    <glyph glyph-name="quotedblbase" unicode="&#x201e;" 
d="M227 -156c79 86 96 157 83 273l108 3c-4 -124 -53 -208 -160 -296zM14 -156c77 86 94 156 80 272l108 3c-4 -124 -53 -207 -157 -295z" />
    <glyph glyph-name="quotesinglbase" unicode="&#x201a;" 
d="M120 -156c80 86 96 157 82 273l110 3c-5 -124 -53 -208 -160 -296z" />
    <glyph glyph-name="guillemotleft" unicode="&#xab;" 
d="M176 -12l-131 218l18 81l210 217l51 -49l-216 -212l133 -213zM412 -12l-130 220l20 82l212 213l49 -50l-217 -209l130 -216z" />
    <glyph glyph-name="guillemotleft.cap" 
d="M189 54l-131 218l18 81l210 217l51 -49l-216 -212l133 -213zM425 54l-130 220l20 82l212 213l49 -50l-217 -209l130 -216z" />
    <glyph glyph-name="guillemotright" unicode="&#xbb;" 
d="M297 -12l-50 49l215 213l-133 213l65 41l131 -217l-17 -81zM57 -10l-50 50l218 210l-131 214l65 40l129 -220l-19 -81z" />
    <glyph glyph-name="guillemotright.cap" 
d="M310 54l-50 49l215 213l-133 213l65 41l131 -217l-17 -81zM70 56l-50 50l218 210l-131 214l65 40l129 -220l-19 -81z" />
    <glyph glyph-name="guilsinglleft" unicode="&#x2039;" 
d="M311 -18l-193 226l21 82l278 218l45 -61l-274 -204l180 -208z" />
    <glyph glyph-name="guilsinglleft.cap" 
d="M324 48l-193 226l21 82l278 218l45 -61l-274 -204l180 -208z" />
    <glyph glyph-name="guilsinglright" unicode="&#x203a;" 
d="M127 -16l-45 60l274 204l-180 208l57 54l192 -227l-20 -81z" />
    <glyph glyph-name="guilsinglright.cap" 
d="M140 50l-45 60l274 204l-180 208l57 54l192 -227l-20 -81z" />
    <glyph glyph-name="hyphen" unicode="-" 
d="M433 327l-12 -68h-298l13 68h297z" />
    <glyph glyph-name="endash" unicode="&#x2013;" 
d="M491 324l-12 -62h-403l12 62h403z" />
    <glyph glyph-name="emdash" unicode="&#x2014;" 
d="M523 324l-12 -62h-443l12 62h443z" />
    <glyph glyph-name="underscore" unicode="_" 
d="M465 -50l-12 -62h-486l12 62h486z" />
    <glyph glyph-name="slash" unicode="/" 
d="M550 718l63 -29l-606 -871l-70 20z" />
    <glyph glyph-name="backslash" unicode="\" 
d="M172 718l277 -884l-66 -20l-276 883z" />
    <glyph glyph-name="bar" unicode="|" 
d="M325 705l74 2l-173 -888h-74z" />
    <glyph glyph-name="parenleft" unicode="(" 
d="M491 716l42 -54c-255 -165 -339 -299 -339 -446c0 -111 55 -229 192 -374l-61 -45c-147 162 -208 295 -208 418c0 167 106 320 374 501z" />
    <glyph glyph-name="parenleft.cap" 
d="M501 765l42 -54c-255 -165 -339 -299 -339 -446c0 -111 55 -229 192 -374l-61 -45c-147 162 -208 295 -208 418c0 167 106 320 374 501z" />
    <glyph glyph-name="parenright" unicode=")" 
d="M52 -212l-42 54c255 165 340 299 340 446c0 111 -55 229 -193 374l61 45c147 -162 208 -295 208 -418c0 -167 -106 -320 -374 -501z" />
    <glyph glyph-name="parenright.cap" 
d="M62 -163l-42 54c255 165 340 299 340 446c0 111 -55 229 -193 374l61 45c147 -162 208 -295 208 -418c0 -167 -106 -320 -374 -501z" />
    <glyph glyph-name="bracketleft" unicode="[" 
d="M61 -179l170 873h311l-13 -64h-233l-145 -745h234l-13 -64h-311z" />
    <glyph glyph-name="bracketleft.cap" 
d="M71 -130l170 873h311l-13 -64h-233l-145 -745h234l-13 -64h-311z" />
    <glyph glyph-name="bracketright" unicode="]" 
d="M486 695l-170 -873h-310l13 64h233l144 745h-233l12 64h311z" />
    <glyph glyph-name="bracketright.cap" 
d="M496 744l-170 -873h-310l13 64h233l144 745h-233l12 64h311z" />
    <glyph glyph-name="braceleft" unicode="{" 
d="M365 -207c-184 81 -256 133 -256 197c0 88 121 123 121 177c0 34 -42 58 -134 69l11 56c128 8 163 38 163 69c0 41 -66 95 -66 157c0 71 82 145 332 205l14 -67c-194 -38 -273 -79 -273 -128c0 -45 66 -105 66 -154c0 -40 -37 -87 -128 -109c67 -20 90 -52 90 -86
c0 -73 -116 -109 -116 -174c0 -47 64 -89 210 -152z" />
    <glyph glyph-name="braceleft.cap" 
d="M375 -158c-184 81 -256 133 -256 197c0 88 121 123 121 177c0 34 -42 58 -134 69l11 56c128 8 163 38 163 69c0 41 -66 95 -66 157c0 71 82 145 332 205l14 -67c-194 -38 -273 -79 -273 -128c0 -45 66 -105 66 -154c0 -40 -37 -87 -128 -109c67 -20 90 -52 90 -86
c0 -73 -116 -109 -116 -174c0 -47 64 -89 210 -152z" />
    <glyph glyph-name="braceright" unicode="}" 
d="M11 -207l-14 68c194 38 273 78 273 128c0 44 -65 104 -65 153c0 41 36 88 128 110c-68 20 -91 52 -91 85c0 73 117 109 117 175c0 47 -64 89 -210 152l33 60c185 -82 256 -133 256 -198c0 -87 -120 -122 -120 -176c0 -34 41 -59 134 -69l-11 -57
c-128 -7 -164 -37 -164 -69c0 -40 67 -94 67 -156c0 -72 -82 -146 -333 -206z" />
    <glyph glyph-name="braceright.cap" 
d="M21 -158l-14 68c194 38 273 78 273 128c0 44 -65 104 -65 153c0 41 36 88 128 110c-68 20 -91 52 -91 85c0 73 117 109 117 175c0 47 -64 89 -210 152l33 60c185 -82 256 -133 256 -198c0 -87 -120 -122 -120 -176c0 -34 41 -59 134 -69l-11 -57
c-128 -7 -164 -37 -164 -69c0 -40 67 -94 67 -156c0 -72 -82 -146 -333 -206z" />
    <glyph glyph-name="at" unicode="@" 
d="M407 -142c-257 -55 -358 56 -358 266c0 282 160 559 364 559c120 0 164 -88 131 -251l-41 -200c-10 -50 -20 -112 -28 -168l-67 1l5 52c-36 -34 -79 -59 -114 -59c-43 0 -73 40 -73 126c0 142 80 295 207 295c14 0 31 -1 49 -4c14 95 -11 147 -83 147
c-146 0 -284 -241 -284 -493c0 -177 80 -258 301 -208zM334 125c22 0 57 16 86 41l49 240c-23 8 -47 13 -63 13c-57 0 -112 -121 -112 -221c0 -52 18 -73 40 -73z" />
    <glyph glyph-name="copyright" unicode="&#xa9;" 
d="M316 613c119 0 205 -90 205 -246c0 -212 -115 -360 -269 -360c-120 0 -209 91 -209 248c0 212 124 358 273 358zM309 568c-119 0 -217 -129 -217 -304c0 -136 73 -212 167 -212c123 0 213 131 213 305c0 137 -70 211 -163 211zM316 481c54 0 74 -42 71 -119l-48 -1
c1 43 -6 68 -32 68c-50 0 -87 -79 -87 -155c0 -77 44 -98 134 -66l-8 -50c-117 -44 -180 3 -180 105c0 113 66 218 150 218z" />
    <glyph glyph-name="published" unicode="&#x2117;" 
d="M43 252c0 214 124 361 273 361c119 0 206 -90 206 -242c0 -217 -125 -364 -275 -364c-118 0 -204 91 -204 245zM92 261c0 -134 70 -209 162 -209c120 0 219 132 219 311c0 131 -71 205 -164 205c-119 0 -217 -130 -217 -307zM219 147h-52l62 323c130 19 180 -24 180 -87
c0 -70 -66 -118 -170 -131z" />
    <glyph glyph-name="registered.alt" 
d="M43 252c0 214 124 361 273 361c119 0 206 -92 206 -243c0 -221 -121 -363 -275 -363c-118 0 -204 91 -204 245zM92 261c0 -134 70 -209 162 -209c124 0 219 125 219 308c0 131 -71 208 -164 208c-119 0 -217 -130 -217 -307zM322 149l-62 133l-19 -3l-25 -127h-52l62 320
c127 18 175 -23 175 -75c0 -39 -35 -76 -91 -104l70 -137z" />
    <glyph glyph-name="registered" unicode="&#xae;" 
d="M327 674c129 0 211 -81 211 -213c0 -156 -101 -266 -242 -266c-129 0 -211 81 -211 213c0 156 101 266 242 266zM326 633c-112 0 -196 -85 -196 -219c0 -114 68 -178 167 -178c112 0 196 85 196 220c0 113 -68 177 -167 177zM351 321l-59 87l-19 -3l-16 -81h-46l44 225
c116 16 154 -15 154 -55c0 -28 -19 -54 -71 -76l64 -91z" />
    <glyph glyph-name="servicemark" unicode="&#x2120;" 
d="M395 345l-17 201h-2l-49 -255h-50l64 328l64 2l19 -203h2l94 202h65l-64 -329h-52l50 255h-2l-94 -201h-28zM280 539l-48 -8c-5 34 -17 51 -38 51c-22 0 -39 -17 -39 -44c0 -59 90 -95 90 -166c0 -57 -53 -107 -193 -72l10 53c96 -30 130 -19 130 15c0 52 -90 88 -90 163
c0 53 42 97 101 97c46 0 71 -31 77 -89z" />
    <glyph glyph-name="trademark" unicode="&#x2122;" 
d="M299 620l-10 -47h-69l-55 -281h-51l55 281h-74l9 47h195zM405 621l19 -203h2l94 202h65l-64 -329h-52l50 255h-2l-94 -201h-28l-17 201h-2l-49 -255h-50l64 328z" />
    <glyph glyph-name="asterisk" unicode="*" 
d="M363 263l-72 138l-135 -79l-31 39l110 110l-119 105l28 41l138 -71l64 145l49 -13l-23 -156l156 -15l2 -49l-156 -25l35 -152z" />
    <glyph glyph-name="asterisk.alt" 
d="M352 546l-39 9l19 140l73 -19zM273 546l-28 -29l-112 85l54 54zM392 476l-12 40l131 53l20 -72zM233 477l12 -39l-130 -54l-21 73zM353 407l28 30l111 -86l-52 -54zM274 407l38 -9l-18 -140l-73 19z" />
    <glyph glyph-name="dagger" unicode="&#x2020;" 
d="M270 126l-53 -20l-11 8l73 361l-157 16l13 64l157 -16l32 158l75 -8l-33 -158l154 -16l-13 -62l-155 15z" />
    <glyph glyph-name="daggerdbl" unicode="&#x2021;" 
d="M260 76l-54 -21l-10 9l43 212l-157 16l13 63l157 -16l27 136l-157 16l13 64l157 -16l32 158l75 -8l-33 -158l154 -16l-13 -62l-155 15l-32 -136l160 -16l-13 -63l-161 16z" />
    <glyph glyph-name="bullet" unicode="&#x2022;" 
d="M402 312c0 -83 -64 -140 -131 -140c-61 0 -108 47 -108 112c0 84 63 140 129 140c65 0 110 -46 110 -112z" />
    <glyph glyph-name="bullet.alt" 
d="M369 190h-211l43 215h211z" />
    <glyph glyph-name="asciicircum" unicode="^" 
d="M434 158l-136 233l-200 -235l-50 43l255 294l17 3l179 -297z" />
    <glyph glyph-name="asciitilde" unicode="~" 
d="M375 197c-84 0 -129 143 -182 143c-33 0 -70 -57 -104 -136l-50 22c51 119 106 187 167 187c84 0 126 -143 178 -143c32 0 70 57 105 136l51 -23c-54 -121 -105 -186 -165 -186z" />
    <glyph glyph-name="dollar" unicode="$" 
d="M203 473c0 -32 35 -68 79 -108l49 163c-91 4 -128 -23 -128 -55zM381 150c0 33 -36 69 -82 108l-50 -168c92 -1 132 26 132 60zM208 -81l-71 1l32 108c-39 3 -83 10 -132 20l16 73c55 -14 103 -23 143 -27l61 200c-63 55 -128 114 -128 176c0 63 60 125 214 123l33 107
h72l-37 -112c33 -4 70 -11 110 -20l-14 -72c-48 13 -89 22 -124 27l-60 -194c65 -56 132 -117 132 -180c0 -61 -61 -123 -219 -124z" />
    <glyph glyph-name="sterling" unicode="&#xa3;" 
d="M492 132c-68 -188 -144 -147 -340 -99c-28 -30 -65 -46 -103 -46c-102 0 -71 123 70 118c18 53 26 104 32 153h-80l12 60h75c8 60 17 117 45 173c37 73 110 143 201 143c92 0 131 -66 128 -189l-76 -4c0 93 -27 120 -70 120c-50 0 -90 -38 -116 -89
c-21 -42 -30 -97 -37 -154h190l-11 -60h-186c-7 -58 -16 -115 -35 -163c149 -33 206 -64 266 56z" />
    <glyph glyph-name="Euro" unicode="&#x20ac;" 
d="M472 34c-232 -106 -356 -20 -367 157h-77l12 60h65c2 33 8 66 16 98h-64l13 59h71c52 129 154 225 270 225c94 0 135 -56 140 -170l-73 -11c-4 73 -21 114 -84 114c-77 0 -143 -72 -180 -163h225l-14 -54h-230c-8 -32 -14 -64 -15 -96h226l-14 -55h-212
c12 -140 100 -174 284 -115z" />
    <glyph glyph-name="yen" unicode="&#xa5;" 
d="M460 121h-171l-23 -121h-77l24 121h-174l11 60h175l12 61l-11 33h-157l11 60h126l-96 283l79 4l102 -312l213 310h83l-205 -285h120l-11 -60h-152l-29 -39l-10 -55h173z" />
    <glyph glyph-name="cent" unicode="&#xa2;" 
d="M153 257c0 -53 27 -97 102 -125l62 270c-125 -19 -164 -77 -164 -145zM423 31c-47 2 -89 7 -126 14l-28 -130h-71l34 147c-105 37 -153 102 -153 181c0 98 67 203 248 233l30 144h71l-31 -137c32 2 68 2 106 -1l-14 -76c-42 3 -80 3 -113 2l-66 -292
c35 -7 77 -12 126 -15z" />
    <glyph glyph-name="colonmonetary" unicode="&#x20a1;" 
d="M316 114l110 401c-30 -4 -58 -10 -82 -17l-99 -360c20 -9 44 -17 71 -24zM142 284c0 -52 19 -91 59 -121l87 317c-109 -44 -146 -116 -146 -196zM260 -74l34 119c-25 6 -48 13 -69 21l-38 -140h-59l47 165c-71 42 -105 102 -105 181c0 113 61 222 231 281l38 140h58
l-33 -122c24 6 51 11 79 16l28 106h58l-28 -100c23 3 46 4 70 5l-8 -72c-30 -1 -58 -2 -85 -5l-114 -418c27 -5 56 -9 88 -13l-28 -67c-27 3 -53 6 -76 10l-29 -107h-59z" />
    <glyph glyph-name="naira" unicode="&#x20a6;" 
d="M203 494l-51 -265l125 2l-69 263h-5zM368 122h7l50 264l-124 -1zM108 0h-63l34 173l-71 -1l12 63l71 1l27 138l-71 -1l12 64h71l35 181l76 3l46 -182l148 1l34 180h62l-35 -181l70 2l-13 -64l-70 -1l-26 -137h70l-12 -64h-71l-34 -175h-73l-46 176h-149z" />
    <glyph glyph-name="peso" unicode="&#x20b1;" 
d="M439 434c-4 79 -70 138 -208 124l-25 -124h233zM172 257c143 -4 233 44 259 120h-236zM563 372h-61c-36 -104 -160 -171 -344 -189l-36 -183h-75l72 372h-76l13 65h75l35 181c245 33 346 -61 346 -181h63z" />
    <glyph glyph-name="R_p" 
d="M189 -5l-45 281v3c82 81 117 147 117 211c0 49 -22 72 -70 71l-111 -561h-65l121 620c135 19 191 -28 191 -115c0 -83 -43 -155 -119 -230l49 -269zM390 59c53 0 107 196 107 312c0 42 -10 63 -28 63c-14 0 -30 -9 -48 -25c-9 -48 -37 -199 -64 -341c12 -6 24 -9 33 -9z
M311 -169l-67 -7c40 208 108 556 126 663l62 5l-5 -38c26 28 55 48 81 48c34 0 55 -34 55 -112c0 -180 -81 -397 -188 -397c-10 0 -21 2 -32 5c-13 -68 -24 -128 -32 -167z" />
    <glyph glyph-name="rupee" unicode="&#x20a8;" 
d="M209 -5l-48 281v3c81 81 117 147 117 211c0 49 -23 73 -71 71l-111 -561h-64l120 620c136 19 192 -28 192 -115c0 -83 -44 -155 -119 -230l51 -269zM521 129c0 -74 -35 -150 -210 -136l1 69c123 -18 138 11 138 60c0 48 -26 104 -43 163c-21 -21 -45 -43 -72 -66l-20 27
c34 35 59 64 79 90c-2 15 -4 30 -4 45c0 79 44 149 92 149c51 0 60 -72 -18 -178c17 -69 57 -148 57 -223z" />
    <glyph glyph-name="rupeeindia" unicode="&#x20b9;" 
d="M439 28l-65 -43c-135 121 -186 165 -311 201l24 59c155 11 230 60 251 120h-236l11 58h231c-10 62 -68 116 -209 130l17 67h406l-18 -68h-232c68 -26 104 -76 111 -129h94l-10 -58h-89c-22 -75 -109 -133 -238 -153c79 -25 144 -78 263 -184z" />
    <glyph glyph-name="ruble" unicode="&#x20bd;" 
d="M470 456c0 73 -60 115 -200 103l-44 -229c163 1 244 40 244 126zM162 0h-77l23 120h-86l12 61h86l17 87h-85l11 62h86l55 288c243 29 342 -41 342 -150c0 -113 -107 -184 -332 -198l-17 -91h217l-17 -58h-212z" />
    <glyph glyph-name="numbersign" unicode="#" 
d="M206 233l125 20l35 145l-125 -21zM148 -11l-58 -7l41 172l-100 -16l15 69l102 16l34 144l-100 -16l14 69l103 17l42 177l58 7l-42 -175l125 20l41 173l58 7l-41 -170l101 16l-14 -68l-103 -17l-35 -144l102 16l-15 -69l-103 -17l-43 -179l-57 -7l42 177l-125 -20z" />
    <glyph glyph-name="numero" unicode="&#x2116;" 
d="M514 624c48 0 78 -39 78 -124c0 -145 -72 -280 -156 -280c-48 0 -77 39 -77 124c0 146 71 280 155 280zM192 0l-29 443h-2l-81 -443h-66l121 620h63l30 -413h2l76 413l65 -1l-120 -620zM419 349c0 -43 12 -67 30 -67c39 0 82 122 82 214c0 43 -12 67 -30 67
c-39 0 -82 -123 -82 -214zM515 112h-201l12 58h201z" />
    <glyph glyph-name="paragraph" unicode="&#xb6;" 
d="M392 164l75 383c-32 4 -61 4 -88 2l-72 -370c25 -7 53 -13 85 -15zM151 350c0 -66 36 -119 105 -152l66 343c-116 -26 -171 -103 -171 -191zM252 -108l-68 -8l47 244c-100 40 -155 113 -155 208c0 175 175 308 473 286l-138 -704l-69 -8l37 187c-31 2 -59 6 -85 12z" />
    <glyph glyph-name="section" unicode="&#xa7;" 
d="M142 252c0 -42 63 -71 128 -102c101 23 144 50 144 82c0 42 -71 70 -137 108c-71 -13 -135 -43 -135 -88zM414 15c0 -82 -113 -162 -396 -102l17 75c225 -59 299 -25 299 21c0 80 -265 109 -265 230c0 69 70 112 159 131c-38 28 -66 61 -66 106c0 79 84 155 200 155
c93 1 137 -53 150 -153l-70 -14c-10 72 -42 102 -99 102c-59 0 -101 -36 -101 -80c0 -99 246 -130 246 -242c0 -57 -56 -94 -162 -123c49 -28 88 -60 88 -106z" />
    <glyph glyph-name="ordfeminine" unicode="&#xaa;" 
d="M236 304c34 0 84 31 120 66c8 40 27 136 39 193c-26 6 -51 10 -69 10c-81 0 -145 -93 -145 -191c0 -51 26 -78 55 -78zM488 277c-109 -58 -147 -30 -140 41c-45 -40 -100 -73 -143 -73c-52 0 -90 42 -90 120c0 134 97 261 236 261c35 0 74 -5 119 -15l-52 -260
c-11 -52 -7 -67 63 -44zM89 172h363l-11 -55h-362z" />
    <glyph glyph-name="ordmasculine" unicode="&#xba;" 
d="M489 474c0 -122 -92 -229 -211 -229c-88 0 -144 59 -144 154c0 122 92 228 211 228c88 0 144 -58 144 -153zM200 407c0 -67 34 -108 90 -108c79 0 134 76 134 167c0 67 -35 109 -90 109c-80 0 -134 -78 -134 -168zM92 172h335l-10 -55h-335z" />
    <glyph glyph-name="degree" unicode="&#xb0;" 
d="M339 675c92 0 158 -64 158 -164c0 -119 -94 -197 -194 -197c-91 0 -156 63 -156 163c0 119 93 198 192 198zM312 374c67 0 121 53 121 131c0 63 -40 110 -102 110c-67 0 -120 -54 -120 -132c0 -63 39 -109 101 -109z" />
    <glyph glyph-name="percent" unicode="%" 
d="M222 633c38 0 67 -36 67 -97c0 -88 -53 -160 -106 -160c-38 0 -67 35 -67 97c0 87 53 160 106 160zM551 589l-453 -596l-45 38l452 596zM382 -13c-38 0 -67 35 -67 95c0 85 53 162 106 162c38 0 67 -35 67 -97c0 -84 -53 -160 -106 -160z" />
    <glyph glyph-name="quotedbl" unicode="&#x22;" 
d="M426 384h-55l48 285h96l-4 -36zM213 384h-55l48 285h96l-4 -36z" />
    <glyph glyph-name="quotesingle" unicode="'" 
d="M320 384h-56l49 285h99l-3 -36z" />
    <glyph glyph-name="plus" unicode="+" 
d="M495 259h-181l-37 -188h-71l37 188h-182l13 67h182l36 187h71l-36 -187h182z" />
    <glyph glyph-name="minus" unicode="&#x2212;" 
d="M491 326l-14 -67h-399l14 67h399z" />
    <glyph glyph-name="divide" unicode="&#xf7;" 
d="M354 427h-90l19 93h90zM509 326l-14 -67h-434l13 67h435zM286 66h-90l19 93h89z" />
    <glyph glyph-name="equal" unicode="=" 
d="M514 440l-14 -66h-399l13 66h400zM471 218l-14 -66h-399l13 66h400z" />
    <glyph glyph-name="multiply" unicode="&#xd7;" 
d="M398 92l-120 149l-172 -143l-44 54l172 143l-121 151l57 48l121 -151l172 143l43 -55l-171 -142l120 -150z" />
    <glyph glyph-name="less" unicode="&#x3c;" 
d="M478 599l34 -61l-344 -237l-2 -10l255 -257l-54 -53l-279 288l12 67z" />
    <glyph glyph-name="greater" unicode="&#x3e;" 
d="M97 -19l-34 61l344 238l2 9l-255 257l54 53l279 -287l-12 -68z" />
    <glyph glyph-name="plusminus" unicode="&#xb1;" 
d="M448 62h-415l13 65h170l34 171h-174l14 66h173l35 181h72l-35 -181h173l-13 -66h-173l-34 -171h172z" />
    <glyph glyph-name="notequal" unicode="&#x2260;" 
d="M457 152h-218l-82 -145l-57 19l71 126h-113l13 66h137l87 156h-194l13 66h219l81 145l57 -20l-70 -125h113l-14 -66h-136l-88 -156h195z" />
    <glyph glyph-name="lessequal" unicode="&#x2264;" 
d="M189 356l-2 -8l261 -153l-38 -59l-312 184l14 64l377 209l23 -62zM443 82l-12 -67h-399l12 67h399z" />
    <glyph glyph-name="greaterequal" unicode="&#x2265;" 
d="M406 358l-252 178l42 57l297 -214l-11 -61l-382 -184l-17 63l322 154zM443 82l-12 -67h-399l12 67h399z" />
    <glyph glyph-name="approxequal" unicode="&#x2248;" 
d="M378 313c-79 0 -108 108 -158 108c-30 0 -62 -46 -101 -107l-44 24c58 101 103 150 160 150c79 0 107 -108 155 -108c29 0 60 44 97 103l44 -24c-57 -100 -96 -146 -153 -146zM337 100c-79 0 -108 108 -159 108c-29 0 -61 -45 -100 -107l-44 24c57 101 103 150 161 150
c78 0 106 -108 154 -108c30 0 60 44 97 103l44 -24c-57 -100 -96 -146 -153 -146z" />
    <glyph glyph-name="mu" unicode="&#xb5;" 
d="M94 -170l-77 -6l128 663l78 6l-62 -319c-15 -78 1 -111 44 -111c45 0 96 36 158 108l62 319h76l-71 -363c-14 -69 -9 -86 80 -50l9 -40c-147 -85 -188 -46 -169 68c-61 -76 -115 -115 -172 -115c-22 0 -40 5 -54 17z" />
    <glyph glyph-name="Omega" unicode="&#x2126;" 
d="M188 5l-3 -5h-181l13 65h102c-19 77 -31 149 -31 223c0 202 84 344 245 344c113 0 176 -74 176 -195c0 -102 -43 -227 -133 -372h96l-12 -65h-180l-1 5c103 183 151 318 151 418c0 89 -40 138 -110 138c-104 0 -161 -121 -161 -296c0 -105 11 -176 29 -260z" />
    <glyph glyph-name="onehalf" unicode="&#xbd;" 
d="M457 425h-295l11 54h123l46 236l-121 -7l8 47l124 16l12 60l64 6l-71 -358h112zM61 279l11 52h433l-10 -52h-434zM334 -210h-284l-1 50c161 98 258 162 258 229c0 49 -48 76 -190 57l9 56c166 25 249 -17 249 -98c0 -82 -83 -148 -232 -239h203z" />
    <glyph glyph-name="onethird" unicode="&#x2153;" 
d="M457 425h-295l11 54h123l46 236l-121 -7l8 47l124 16l12 60l64 6l-71 -358h112zM61 279l11 52h433l-10 -52h-434zM355 -98c0 -64 -73 -134 -298 -112l7 57c183 -18 228 16 228 49c0 31 -44 62 -167 86l4 27l184 122h-192l11 54h259l-6 -54l-181 -120
c111 -26 151 -66 151 -109z" />
    <glyph glyph-name="twothirds" unicode="&#x2154;" 
d="M446 425h-284l-1 50c161 98 258 162 258 229c0 49 -48 76 -190 57l9 56c166 25 249 -17 249 -98c0 -82 -83 -148 -232 -239h203zM61 279l11 52h433l-10 -52h-434zM355 -98c0 -64 -73 -134 -298 -112l7 57c183 -18 228 16 228 49c0 31 -44 62 -167 86l4 27l184 122h-192
l11 54h259l-6 -54l-181 -120c111 -26 151 -66 151 -109z" />
    <glyph glyph-name="onequarter" unicode="&#xbc;" 
d="M457 425h-295l11 54h123l46 236l-121 -7l8 47l124 16l12 60l64 6l-71 -358h112zM61 279l11 52h433l-10 -52h-434zM367 -129h-47l-16 -81h-59l16 81h-204l5 43c52 87 88 158 124 275l67 -3c-40 -120 -77 -189 -128 -262h146l25 129l60 5l-26 -134h53z" />
    <glyph glyph-name="threequarters" unicode="&#xbe;" 
d="M467 537c0 -64 -73 -134 -298 -112l7 57c183 -18 228 16 228 49c0 31 -44 62 -167 86l4 27l184 122h-192l11 54h259l-6 -54l-181 -120c111 -26 151 -66 151 -109zM61 279l11 52h433l-10 -52h-434zM367 -129h-47l-16 -81h-59l16 81h-204l5 43c52 87 88 158 124 275l67 -3
c-40 -120 -77 -189 -128 -262h146l25 129l60 5l-26 -134h53z" />
    <glyph glyph-name="onefifth" unicode="&#x2155;" 
d="M457 425h-295l11 54h123l46 236l-121 -7l8 47l124 16l12 60l64 6l-71 -358h112zM61 279l11 52h433l-10 -52h-434zM357 -84c0 -71 -79 -143 -300 -127l7 58c179 -15 231 24 231 62c0 35 -46 65 -189 85l46 191h242l-16 -54h-181l-24 -98c139 -24 184 -68 184 -117z" />
    <glyph glyph-name="twofifths" unicode="&#x2156;" 
d="M446 425h-284l-1 50c161 98 258 162 258 229c0 49 -48 76 -190 57l9 56c166 25 249 -17 249 -98c0 -82 -83 -148 -232 -239h203zM61 279l11 52h433l-10 -52h-434zM357 -84c0 -71 -79 -143 -300 -127l7 58c179 -15 231 24 231 62c0 35 -46 65 -189 85l46 191h242l-16 -54
h-181l-24 -98c139 -24 184 -68 184 -117z" />
    <glyph glyph-name="threefifths" unicode="&#x2157;" 
d="M467 537c0 -64 -73 -134 -298 -112l7 57c183 -18 228 16 228 49c0 31 -44 62 -167 86l4 27l184 122h-192l11 54h259l-6 -54l-181 -120c111 -26 151 -66 151 -109zM61 279l11 52h433l-10 -52h-434zM357 -84c0 -71 -79 -143 -300 -127l7 58c179 -15 231 24 231 62
c0 35 -46 65 -189 85l46 191h242l-16 -54h-181l-24 -98c139 -24 184 -68 184 -117z" />
    <glyph glyph-name="fourfifths" unicode="&#x2158;" 
d="M479 506h-47l-16 -81h-59l16 81h-204l5 43c52 87 88 158 124 275l67 -3c-40 -120 -77 -189 -128 -262h146l25 129l60 5l-26 -134h53zM61 279l11 52h433l-10 -52h-434zM357 -84c0 -71 -79 -143 -300 -127l7 58c179 -15 231 24 231 62c0 35 -46 65 -189 85l46 191h242
l-16 -54h-181l-24 -98c139 -24 184 -68 184 -117z" />
    <glyph glyph-name="onesixth" unicode="&#x2159;" 
d="M457 425h-295l11 54h123l46 236l-121 -7l8 47l124 16l12 60l64 6l-71 -358h112zM61 279l11 52h433l-10 -52h-434zM211 -219c-79 0 -141 46 -141 140c0 106 72 222 278 276l14 -53c-142 -33 -201 -96 -222 -156c106 78 228 37 228 -66c0 -84 -69 -141 -157 -141zM221 -170
c55 0 88 37 88 84c0 71 -88 102 -177 36c-1 -7 -1 -14 -1 -20c0 -73 43 -100 90 -100z" />
    <glyph glyph-name="fivesixths" unicode="&#x215a;" 
d="M469 551c0 -71 -79 -143 -300 -127l7 58c179 -15 231 24 231 62c0 35 -46 65 -189 85l46 191h242l-16 -54h-181l-24 -98c139 -24 184 -68 184 -117zM61 279l11 52h433l-10 -52h-434zM211 -219c-79 0 -141 46 -141 140c0 106 72 222 278 276l14 -53
c-142 -33 -201 -96 -222 -156c106 78 228 37 228 -66c0 -84 -69 -141 -157 -141zM221 -170c55 0 88 37 88 84c0 71 -88 102 -177 36c-1 -7 -1 -14 -1 -20c0 -73 43 -100 90 -100z" />
    <glyph glyph-name="oneeighth" unicode="&#x215b;" 
d="M457 425h-295l11 54h123l46 236l-121 -7l8 47l124 16l12 60l64 6l-71 -358h112zM61 279l11 52h433l-10 -52h-434zM348 -113c0 -59 -65 -107 -156 -107c-80 0 -132 36 -132 90c0 38 21 73 119 130c-34 29 -62 60 -62 94c0 61 82 118 240 94l-21 -60
c-121 28 -160 3 -160 -28c0 -22 24 -46 55 -71c40 21 88 45 148 72l19 -36c-54 -25 -98 -46 -133 -64c42 -34 83 -72 83 -114zM204 -170c50 0 85 24 85 53s-37 58 -76 90c-78 -45 -92 -68 -92 -89c0 -34 36 -54 83 -54z" />
    <glyph glyph-name="threeeighths" unicode="&#x215c;" 
d="M467 537c0 -64 -73 -134 -298 -112l7 57c183 -18 228 16 228 49c0 31 -44 62 -167 86l4 27l184 122h-192l11 54h259l-6 -54l-181 -120c111 -26 151 -66 151 -109zM61 279l11 52h433l-10 -52h-434zM348 -113c0 -59 -65 -107 -156 -107c-80 0 -132 36 -132 90
c0 38 21 73 119 130c-34 29 -62 60 -62 94c0 61 82 118 240 94l-21 -60c-121 28 -160 3 -160 -28c0 -22 24 -46 55 -71c40 21 88 45 148 72l19 -36c-54 -25 -98 -46 -133 -64c42 -34 83 -72 83 -114zM204 -170c50 0 85 24 85 53s-37 58 -76 90c-78 -45 -92 -68 -92 -89
c0 -34 36 -54 83 -54z" />
    <glyph glyph-name="fiveeighths" unicode="&#x215d;" 
d="M469 551c0 -71 -79 -143 -300 -127l7 58c179 -15 231 24 231 62c0 35 -46 65 -189 85l46 191h242l-16 -54h-181l-24 -98c139 -24 184 -68 184 -117zM61 279l11 52h433l-10 -52h-434zM348 -113c0 -59 -65 -107 -156 -107c-80 0 -132 36 -132 90c0 38 21 73 119 130
c-34 29 -62 60 -62 94c0 61 82 118 240 94l-21 -60c-121 28 -160 3 -160 -28c0 -22 24 -46 55 -71c40 21 88 45 148 72l19 -36c-54 -25 -98 -46 -133 -64c42 -34 83 -72 83 -114zM204 -170c50 0 85 24 85 53s-37 58 -76 90c-78 -45 -92 -68 -92 -89c0 -34 36 -54 83 -54z
" />
    <glyph glyph-name="seveneighths" unicode="&#x215e;" 
d="M273 421l-68 7c66 113 146 227 242 335l-1 3h-223l13 55h290l-11 -53c-95 -111 -175 -230 -242 -347zM61 279l11 52h433l-10 -52h-434zM348 -113c0 -59 -65 -107 -156 -107c-80 0 -132 36 -132 90c0 38 21 73 119 130c-34 29 -62 60 -62 94c0 61 82 118 240 94l-21 -60
c-121 28 -160 3 -160 -28c0 -22 24 -46 55 -71c40 21 88 45 148 72l19 -36c-54 -25 -98 -46 -133 -64c42 -34 83 -72 83 -114zM204 -170c50 0 85 24 85 53s-37 58 -76 90c-78 -45 -92 -68 -92 -89c0 -34 36 -54 83 -54z" />
    <glyph glyph-name="zero.sup" unicode="&#x2070;" 
d="M158 478c0 136 88 257 199 257c79 0 130 -57 130 -158c0 -135 -88 -256 -199 -256c-78 0 -130 57 -130 157zM424 572c0 72 -29 109 -77 109c-75 0 -126 -99 -126 -198c0 -71 29 -108 76 -108c75 0 127 98 127 197z" />
    <glyph glyph-name="one.sup" unicode="&#xb9;" 
d="M439 331h-295l11 54h123l46 236l-121 -7l8 47l124 16l12 60l64 6l-71 -358h112z" />
    <glyph glyph-name="two.sup" unicode="&#xb2;" 
d="M428 331h-284l-1 50c161 98 258 162 258 229c0 49 -48 76 -190 57l9 56c166 25 249 -17 249 -98c0 -82 -83 -148 -232 -239h203z" />
    <glyph glyph-name="three.sup" unicode="&#xb3;" 
d="M449 443c0 -64 -73 -134 -298 -112l7 57c183 -18 228 16 228 49c0 31 -44 62 -167 86l4 27l184 122h-192l11 54h259l-6 -54l-181 -120c111 -26 151 -66 151 -109z" />
    <glyph glyph-name="four.sup" unicode="&#x2074;" 
d="M461 412h-47l-16 -81h-59l16 81h-204l5 43c52 87 88 158 124 275l67 -3c-40 -120 -77 -189 -128 -262h146l25 129l60 5l-26 -134h53z" />
    <glyph glyph-name="five.sup" unicode="&#x2075;" 
d="M451 457c0 -71 -79 -143 -300 -127l7 58c179 -15 231 24 231 62c0 35 -46 65 -189 85l46 191h242l-16 -54h-181l-24 -98c139 -24 184 -68 184 -117z" />
    <glyph glyph-name="six.sup" unicode="&#x2076;" 
d="M305 322c-79 0 -141 46 -141 140c0 106 72 222 278 276l14 -53c-142 -33 -201 -96 -222 -156c106 78 228 37 228 -66c0 -84 -69 -141 -157 -141zM315 371c55 0 88 37 88 84c0 71 -88 102 -177 36c-1 -7 -1 -14 -1 -20c0 -73 43 -100 90 -100z" />
    <glyph glyph-name="seven.sup" unicode="&#x2077;" 
d="M255 327l-68 7c66 113 146 227 242 335l-1 3h-223l13 55h290l-11 -53c-95 -111 -175 -230 -242 -347z" />
    <glyph glyph-name="eight.sup" unicode="&#x2078;" 
d="M442 428c0 -59 -65 -107 -156 -107c-80 0 -132 36 -132 90c0 38 21 73 119 130c-34 29 -62 60 -62 94c0 61 82 118 240 94l-21 -60c-121 28 -160 3 -160 -28c0 -22 24 -46 55 -71c40 21 88 45 148 72l19 -36c-54 -25 -98 -46 -133 -64c42 -34 83 -72 83 -114zM298 371
c50 0 85 24 85 53s-37 58 -76 90c-78 -45 -92 -68 -92 -89c0 -34 36 -54 83 -54z" />
    <glyph glyph-name="nine.sup" unicode="&#x2079;" 
d="M202 319l-14 53c143 33 201 96 222 157c-105 -79 -228 -39 -228 65c0 84 69 142 156 142c80 0 142 -46 142 -140c0 -107 -72 -222 -278 -277zM241 602c0 -70 88 -102 177 -36c1 7 1 14 1 20c0 73 -43 100 -90 100c-56 0 -88 -37 -88 -84z" />
    <glyph glyph-name="zero.inf" unicode="&#x2080;" 
d="M76 -3c0 136 88 257 199 257c79 0 130 -57 130 -158c0 -135 -88 -256 -199 -256c-78 0 -130 57 -130 157zM342 91c0 72 -29 109 -77 109c-75 0 -126 -99 -126 -198c0 -71 29 -108 76 -108c75 0 127 98 127 197z" />
    <glyph glyph-name="one.inf" unicode="&#x2081;" 
d="M357 -150h-295l11 54h123l46 236l-121 -7l8 47l124 16l12 60l64 6l-71 -358h112z" />
    <glyph glyph-name="two.inf" unicode="&#x2082;" 
d="M346 -150h-284l-1 50c161 98 258 162 258 229c0 49 -48 76 -190 57l9 56c166 25 249 -17 249 -98c0 -82 -83 -148 -232 -239h203z" />
    <glyph glyph-name="three.inf" unicode="&#x2083;" 
d="M367 -38c0 -64 -73 -134 -298 -112l7 57c183 -18 228 16 228 49c0 31 -44 62 -167 86l4 27l184 122h-192l11 54h259l-6 -54l-181 -120c111 -26 151 -66 151 -109z" />
    <glyph glyph-name="four.inf" unicode="&#x2084;" 
d="M379 -69h-47l-16 -81h-59l16 81h-204l5 43c52 87 88 158 124 275l67 -3c-40 -120 -77 -189 -128 -262h146l25 129l60 5l-26 -134h53z" />
    <glyph glyph-name="five.inf" unicode="&#x2085;" 
d="M369 -24c0 -71 -79 -143 -300 -127l7 58c179 -15 231 24 231 62c0 35 -46 65 -189 85l46 191h242l-16 -54h-181l-24 -98c139 -24 184 -68 184 -117z" />
    <glyph glyph-name="six.inf" unicode="&#x2086;" 
d="M223 -159c-79 0 -141 46 -141 140c0 106 72 222 278 276l14 -53c-142 -33 -201 -96 -222 -156c106 78 228 37 228 -66c0 -84 -69 -141 -157 -141zM233 -110c55 0 88 37 88 84c0 71 -88 102 -177 36c-1 -7 -1 -14 -1 -20c0 -73 43 -100 90 -100z" />
    <glyph glyph-name="seven.inf" unicode="&#x2087;" 
d="M173 -154l-68 7c66 113 146 227 242 335l-1 3h-223l13 55h290l-11 -53c-95 -111 -175 -230 -242 -347z" />
    <glyph glyph-name="eight.inf" unicode="&#x2088;" 
d="M360 -53c0 -59 -65 -107 -156 -107c-80 0 -132 36 -132 90c0 38 21 73 119 130c-34 29 -62 60 -62 94c0 61 82 118 240 94l-21 -60c-121 28 -160 3 -160 -28c0 -22 24 -46 55 -71c40 21 88 45 148 72l19 -36c-54 -25 -98 -46 -133 -64c42 -34 83 -72 83 -114zM216 -110
c50 0 85 24 85 53s-37 58 -76 90c-78 -45 -92 -68 -92 -89c0 -34 36 -54 83 -54z" />
    <glyph glyph-name="nine.inf" unicode="&#x2089;" 
d="M120 -162l-14 53c143 33 201 96 222 157c-105 -79 -228 -39 -228 65c0 84 69 142 156 142c80 0 142 -46 142 -140c0 -107 -72 -222 -278 -277zM159 121c0 -70 88 -102 177 -36c1 7 1 14 1 20c0 73 -43 100 -90 100c-56 0 -88 -37 -88 -84z" />
    <glyph glyph-name="check.1" unicode="&#xe10c;" 
d="M579 636c-134 -198 -252 -413 -350 -655l-69 1l-84 361l72 22l59 -281h4c79 211 178 414 292 588z" />
    <glyph glyph-name="check.2" unicode="&#xe10d;" 
d="M298 -5l-66 212l-154 -210l-49 23l179 253l-73 215l76 21l52 -172l227 337l73 -37l-274 -369l87 -263z" />
    <glyph glyph-name="uni00A0" unicode="&#xa0;" 
 />
    <glyph glyph-name="hcoslug" unicode="&#xe10b;" 
d="M500 700v-800h-450v800h450zM200 296c0 13 8 22 20 22c13 0 22 -11 22 -29c0 -12 -5 -24 -14 -37c-17 16 -28 27 -28 44zM249 232c14 9 24 18 31 25c17 -17 14 -35 -1 -60c-9 11 -18 23 -30 35zM210 139c-22 0 -39 18 -39 41c0 11 4 22 12 30c14 -13 35 -35 56 -62
c-8 -6 -17 -9 -29 -9zM301 173c11 15 23 25 35 32c6 -12 18 -19 32 -19c21 0 37 17 37 40c0 24 -16 39 -37 39c-19 0 -33 -10 -45 -28c-2 20 -17 28 -37 28c5 7 7 15 7 25c0 26 -25 56 -71 56c-51 0 -82 -32 -82 -64c0 -22 7 -35 23 -52c-40 -13 -61 -37 -61 -68
c0 -40 36 -70 81 -70c32 0 57 11 78 34c25 -26 42 -34 64 -34c32 0 59 27 60 71l-5 1c-8 -13 -17 -22 -32 -22s-28 9 -47 31zM229 68l-9 -1v-7h-5v-5h5v-15c0 -6 3 -10 9 -10s9 3 11 10l-4 1c-1 -4 -2 -5 -4 -5s-3 1 -3 4v15h10v5h-10v8zM145 46c0 -10 7 -16 16 -16
s16 7 16 16s-7 15 -16 15s-16 -6 -16 -15zM167 46c0 -9 -2 -12 -6 -12s-6 3 -6 12c0 8 2 11 6 11s6 -3 6 -11zM299 45c0 -6 -2 -10 -5 -10c-5 0 -6 4 -6 10c0 5 1 10 6 10c3 0 5 -4 5 -10zM179 36v-5h16v5h-3v11c0 5 3 8 6 8s4 -3 4 -6v-13h-3v-5h17v5h-5v14
c0 6 -2 11 -9 11c-5 0 -8 -3 -10 -7v6h-13v-5h4v-19h-4zM108 36v-5h23v5h-7v12h3c4 0 4 -1 5 -6h5v17h-5c-1 -5 -1 -6 -5 -6h-3v14h8c6 0 7 -2 9 -10h5v15h-38v-5h6v-31h-6zM241 41v-10h5l1 3c2 -2 5 -4 10 -4c7 0 10 4 10 9c0 11 -18 9 -18 14c0 2 2 3 4 3c3 0 5 -1 8 -5h5
v10h-5l-1 -4c-2 3 -5 4 -8 4c-7 0 -11 -5 -11 -9c0 -12 18 -8 18 -15c0 -1 -1 -3 -4 -3s-6 3 -9 7h-5zM279 69v-39h4l3 6c2 -4 5 -6 11 -6c9 0 12 9 12 16c0 9 -5 15 -12 15c-4 0 -8 -3 -9 -7v20h-14v-5h5zM318 24c2 2 1 7 -4 7c-3 0 -5 -2 -5 -5c0 -4 3 -7 9 -7s10 5 13 12
l10 24h4v5h-13v-5h4l-6 -15l-7 15h4v5h-18v-5h3s9 -18 12 -25c0 -4 -3 -6 -6 -6zM363 0h-14v-6h5c-1 -2 -3 -5 -5 -7c-3 3 -7 8 -9 10c5 3 8 5 8 10s-4 9 -10 9c-9 0 -13 -6 -13 -11c0 -4 2 -7 5 -10c-6 -2 -10 -5 -10 -11s5 -10 12 -10c6 0 10 2 13 5c3 -3 5 -5 9 -5
c6 0 8 4 9 9l-3 1c-1 -3 -2 -4 -3 -4s-3 2 -5 4c3 3 5 6 7 10h4v6zM235 4v4c0 6 2 8 4 8s3 -1 3 -1s-1 -1 -1 -3s2 -4 5 -4v-4h-11zM367 -5c0 -14 8 -21 21 -21c11 0 17 7 18 17h-6c-1 -6 -4 -12 -10 -12c-8 0 -12 6 -12 17c0 12 4 17 10 17s8 -3 11 -12h6v16h-6v-4
c-3 3 -7 5 -12 5c-11 0 -20 -8 -20 -23zM338 -1c-3 3 -5 6 -5 8c0 3 2 4 4 4c3 0 5 -2 5 -5s-2 -6 -4 -7zM270 -12h19c1 10 -3 17 -14 17c-8 0 -15 -6 -15 -16c0 -9 6 -15 16 -15c8 0 12 5 13 11h-5c-1 -4 -3 -6 -7 -6c-5 0 -7 3 -7 9zM200 -12h19c1 10 -3 17 -14 17
c-8 0 -15 -6 -15 -16c0 -9 6 -15 16 -15c8 0 12 5 13 11h-5c-1 -4 -3 -6 -7 -6c-5 0 -7 3 -7 9zM156 -10c0 -10 7 -16 16 -16s16 7 16 16s-7 15 -16 15s-16 -6 -16 -15zM408 -10c0 -10 7 -16 16 -16s16 7 16 16s-7 15 -16 15s-16 -6 -16 -15zM270 -8c0 7 2 9 5 9
c4 0 5 -3 5 -9h-10zM200 -8c0 7 2 9 5 9c4 0 5 -3 5 -9h-10zM178 -10c0 -9 -2 -12 -6 -12s-6 3 -6 12c0 8 2 11 6 11s6 -3 6 -11zM430 -10c0 -9 -2 -12 -6 -12s-6 3 -6 12c0 8 2 11 6 11s6 -3 6 -11zM222 -20v-5h17v5h-4v19h11v-19h-4v-5h17v5h-4v39l-8 -2c-2 1 -4 2 -8 2
c-6 0 -13 -4 -13 -14v-1h-5v-5h5v-19h-4zM291 -20v-5h19v5h-6v12c1 4 4 7 5 7v-1c0 -3 3 -4 5 -4c3 0 5 2 5 5c0 4 -2 6 -6 6s-7 -2 -9 -7v6h-13v-5h4v-19h-4zM108 -20v-5h21v5h-5v14h16v-14h-5v-5h21v5h-6v31h6v5h-21v-5h5v-12h-16v12h5v5h-21v-5h6v-31h-6zM342 -18
c-2 -2 -4 -3 -6 -3c-4 0 -7 3 -7 7c0 3 1 5 3 7c4 -4 8 -9 10 -11zM453 -20c0 3 -2 6 -6 6s-6 -3 -6 -6s2 -6 6 -6s6 3 6 6z" />
    <glyph glyph-name="f.lig" 
d="M403 16c0 -99 -85 -167 -176 -167c-85 0 -151 66 -151 219c0 60 10 125 28 188l-36 16l11 47h44c73 204 217 386 351 386c109 0 129 -121 -2 -257l-33 17c77 91 67 158 6 158c-89 0 -190 -140 -247 -304h297l-12 -64l-250 4c119 -86 170 -170 170 -243zM255 -87
c51 0 93 34 93 92c0 67 -52 148 -174 230c-14 -54 -21 -109 -21 -161c0 -123 46 -161 102 -161z" />
    <glyph glyph-name="l.ultra" 
d="M454 65c-208 -125 -337 -86 -337 113c0 271 173 528 313 528c59 0 94 -38 94 -104c0 -120 -97 -280 -325 -454c16 -108 95 -113 240 -43zM404 629c-88 0 -208 -207 -208 -429c185 154 255 285 255 369c0 40 -20 60 -47 60z" />
    <glyph glyph-name="fraction" unicode="&#x2044;" 
d="M20 -160l-62 34l579 880l61 -34z" />
    <glyph glyph-name="fraction.afrc" 
d="M61 279l11 52h433l-10 -52h-434z" />
    <glyph glyph-name="zero.num" 
d="M176 572c0 136 88 257 199 257c79 0 130 -57 130 -158c0 -135 -88 -256 -199 -256c-78 0 -130 57 -130 157zM442 666c0 72 -29 109 -77 109c-75 0 -126 -99 -126 -198c0 -71 29 -108 76 -108c75 0 127 98 127 197z" />
    <glyph glyph-name="one.num" 
d="M457 425h-295l11 54h123l46 236l-121 -7l8 47l124 16l12 60l64 6l-71 -358h112z" />
    <glyph glyph-name="two.num" 
d="M446 425h-284l-1 50c161 98 258 162 258 229c0 49 -48 76 -190 57l9 56c166 25 249 -17 249 -98c0 -82 -83 -148 -232 -239h203z" />
    <glyph glyph-name="three.num" 
d="M467 537c0 -64 -73 -134 -298 -112l7 57c183 -18 228 16 228 49c0 31 -44 62 -167 86l4 27l184 122h-192l11 54h259l-6 -54l-181 -120c111 -26 151 -66 151 -109z" />
    <glyph glyph-name="four.num" 
d="M479 506h-47l-16 -81h-59l16 81h-204l5 43c52 87 88 158 124 275l67 -3c-40 -120 -77 -189 -128 -262h146l25 129l60 5l-26 -134h53z" />
    <glyph glyph-name="five.num" 
d="M469 551c0 -71 -79 -143 -300 -127l7 58c179 -15 231 24 231 62c0 35 -46 65 -189 85l46 191h242l-16 -54h-181l-24 -98c139 -24 184 -68 184 -117z" />
    <glyph glyph-name="six.num" 
d="M323 416c-79 0 -141 46 -141 140c0 106 72 222 278 276l14 -53c-142 -33 -201 -96 -222 -156c106 78 228 37 228 -66c0 -84 -69 -141 -157 -141zM333 465c55 0 88 37 88 84c0 71 -88 102 -177 36c-1 -7 -1 -14 -1 -20c0 -73 43 -100 90 -100z" />
    <glyph glyph-name="seven.num" 
d="M273 421l-68 7c66 113 146 227 242 335l-1 3h-223l13 55h290l-11 -53c-95 -111 -175 -230 -242 -347z" />
    <glyph glyph-name="eight.num" 
d="M460 522c0 -59 -65 -107 -156 -107c-80 0 -132 36 -132 90c0 38 21 73 119 130c-34 29 -62 60 -62 94c0 61 82 118 240 94l-21 -60c-121 28 -160 3 -160 -28c0 -22 24 -46 55 -71c40 21 88 45 148 72l19 -36c-54 -25 -98 -46 -133 -64c42 -34 83 -72 83 -114zM316 465
c50 0 85 24 85 53s-37 58 -76 90c-78 -45 -92 -68 -92 -89c0 -34 36 -54 83 -54z" />
    <glyph glyph-name="nine.num" 
d="M220 413l-14 53c143 33 201 96 222 157c-105 -79 -228 -39 -228 65c0 84 69 142 156 142c80 0 142 -46 142 -140c0 -107 -72 -222 -278 -277zM259 696c0 -70 88 -102 177 -36c1 7 1 14 1 20c0 73 -43 100 -90 100c-56 0 -88 -37 -88 -84z" />
    <glyph glyph-name="zero.den" 
d="M64 -63c0 136 88 257 199 257c79 0 130 -57 130 -158c0 -135 -88 -256 -199 -256c-78 0 -130 57 -130 157zM330 31c0 72 -29 109 -77 109c-75 0 -126 -99 -126 -198c0 -71 29 -108 76 -108c75 0 127 98 127 197z" />
    <glyph glyph-name="one.den" 
d="M345 -210h-295l11 54h123l46 236l-121 -7l8 47l124 16l12 60l64 6l-71 -358h112z" />
    <glyph glyph-name="two.den" 
d="M334 -210h-284l-1 50c161 98 258 162 258 229c0 49 -48 76 -190 57l9 56c166 25 249 -17 249 -98c0 -82 -83 -148 -232 -239h203z" />
    <glyph glyph-name="three.den" 
d="M355 -98c0 -64 -73 -134 -298 -112l7 57c183 -18 228 16 228 49c0 31 -44 62 -167 86l4 27l184 122h-192l11 54h259l-6 -54l-181 -120c111 -26 151 -66 151 -109z" />
    <glyph glyph-name="four.den" 
d="M367 -129h-47l-16 -81h-59l16 81h-204l5 43c52 87 88 158 124 275l67 -3c-40 -120 -77 -189 -128 -262h146l25 129l60 5l-26 -134h53z" />
    <glyph glyph-name="five.den" 
d="M357 -84c0 -71 -79 -143 -300 -127l7 58c179 -15 231 24 231 62c0 35 -46 65 -189 85l46 191h242l-16 -54h-181l-24 -98c139 -24 184 -68 184 -117z" />
    <glyph glyph-name="six.den" 
d="M211 -219c-79 0 -141 46 -141 140c0 106 72 222 278 276l14 -53c-142 -33 -201 -96 -222 -156c106 78 228 37 228 -66c0 -84 -69 -141 -157 -141zM221 -170c55 0 88 37 88 84c0 71 -88 102 -177 36c-1 -7 -1 -14 -1 -20c0 -73 43 -100 90 -100z" />
    <glyph glyph-name="seven.den" 
d="M161 -214l-68 7c66 113 146 227 242 335l-1 3h-223l13 55h290l-11 -53c-95 -111 -175 -230 -242 -347z" />
    <glyph glyph-name="eight.den" 
d="M348 -113c0 -59 -65 -107 -156 -107c-80 0 -132 36 -132 90c0 38 21 73 119 130c-34 29 -62 60 -62 94c0 61 82 118 240 94l-21 -60c-121 28 -160 3 -160 -28c0 -22 24 -46 55 -71c40 21 88 45 148 72l19 -36c-54 -25 -98 -46 -133 -64c42 -34 83 -72 83 -114zM204 -170
c50 0 85 24 85 53s-37 58 -76 90c-78 -45 -92 -68 -92 -89c0 -34 36 -54 83 -54z" />
    <glyph glyph-name="nine.den" 
d="M108 -222l-14 53c143 33 201 96 222 157c-105 -79 -228 -39 -228 65c0 84 69 142 156 142c80 0 142 -46 142 -140c0 -107 -72 -222 -278 -277zM147 61c0 -70 88 -102 177 -36c1 7 1 14 1 20c0 73 -43 100 -90 100c-56 0 -88 -37 -88 -84z" />
    <glyph glyph-name="zero.small" 
d="M99 147c0 136 88 257 199 257c79 0 130 -57 130 -158c0 -135 -88 -256 -199 -256c-78 0 -130 57 -130 157zM365 241c0 72 -29 109 -77 109c-75 0 -126 -99 -126 -198c0 -71 29 -108 76 -108c75 0 127 98 127 197z" />
    <glyph glyph-name="one.small" 
d="M380 0h-295l11 54h123l46 236l-121 -7l8 47l124 16l12 60l64 6l-71 -358h112z" />
    <glyph glyph-name="two.small" 
d="M369 0h-284l-1 50c161 98 258 162 258 229c0 49 -48 76 -190 57l9 56c166 25 249 -17 249 -98c0 -82 -83 -148 -232 -239h203z" />
    <glyph glyph-name="three.small" 
d="M390 112c0 -64 -73 -134 -298 -112l7 57c183 -18 228 16 228 49c0 31 -44 62 -167 86l4 27l184 122h-192l11 54h259l-6 -54l-181 -120c111 -26 151 -66 151 -109z" />
    <glyph glyph-name="four.small" 
d="M402 81h-47l-16 -81h-59l16 81h-204l5 43c52 87 88 158 124 275l67 -3c-40 -120 -77 -189 -128 -262h146l25 129l60 5l-26 -134h53z" />
    <glyph glyph-name="five.small" 
d="M392 126c0 -71 -79 -143 -300 -127l7 58c179 -15 231 24 231 62c0 35 -46 65 -189 85l46 191h242l-16 -54h-181l-24 -98c139 -24 184 -68 184 -117z" />
    <glyph glyph-name="six.small" 
d="M246 -9c-79 0 -141 46 -141 140c0 106 72 222 278 276l14 -53c-142 -33 -201 -96 -222 -156c106 78 228 37 228 -66c0 -84 -69 -141 -157 -141zM256 40c55 0 88 37 88 84c0 71 -88 102 -177 36c-1 -7 -1 -14 -1 -20c0 -73 43 -100 90 -100z" />
    <glyph glyph-name="seven.small" 
d="M196 -4l-68 7c66 113 146 227 242 335l-1 3h-223l13 55h290l-11 -53c-95 -111 -175 -230 -242 -347z" />
    <glyph glyph-name="eight.small" 
d="M383 97c0 -59 -65 -107 -156 -107c-80 0 -132 36 -132 90c0 38 21 73 119 130c-34 29 -62 60 -62 94c0 61 82 118 240 94l-21 -60c-121 28 -160 3 -160 -28c0 -22 24 -46 55 -71c40 21 88 45 148 72l19 -36c-54 -25 -98 -46 -133 -64c42 -34 83 -72 83 -114zM239 40
c50 0 85 24 85 53s-37 58 -76 90c-78 -45 -92 -68 -92 -89c0 -34 36 -54 83 -54z" />
    <glyph glyph-name="nine.small" 
d="M143 -12l-14 53c143 33 201 96 222 157c-105 -79 -228 -39 -228 65c0 84 69 142 156 142c80 0 142 -46 142 -140c0 -107 -72 -222 -278 -277zM182 271c0 -70 88 -102 177 -36c1 7 1 14 1 20c0 73 -43 100 -90 100c-56 0 -88 -37 -88 -84z" />
    <glyph glyph-name="acute" unicode="&#xb4;" 
d="M161 593c65 39 159 113 216 169l55 -63c-67 -51 -180 -109 -255 -141z" />
    <glyph glyph-name="hungarumlaut" unicode="&#x2dd;" 
d="M165 559l-34 27c47 54 104 138 137 194l76 -41c-43 -53 -118 -129 -179 -180zM375 559l-35 27c47 54 102 132 134 189l78 -37c-43 -54 -116 -129 -177 -179z" />
    <glyph glyph-name="caron.alt" 
d="M282 798l90 5c-5 -86 -33 -167 -108 -254l-34 15c53 90 56 159 52 234z" />
    <glyph glyph-name="grave" unicode="`" 
d="M387 585l-20 -33c-63 33 -162 100 -220 153l53 62c50 -59 130 -138 187 -182z" />
    <glyph glyph-name="circumflex" unicode="&#x2c6;" 
d="M396 558l-101 115l-158 -111l-35 41l205 147h4l139 -150z" />
    <glyph glyph-name="caron" unicode="&#x2c7;" 
d="M269 555h-4l-140 150l54 42l102 -116l157 112l36 -42z" />
    <glyph glyph-name="breve" unicode="&#x2d8;" 
d="M430 737l45 -28c-69 -91 -141 -144 -212 -144c-68 0 -121 47 -159 146l60 31c34 -82 66 -114 115 -114c52 0 95 40 151 109z" />
    <glyph glyph-name="tilde" unicode="&#x2dc;" 
d="M355 628c27 0 58 42 94 100l40 -24c-49 -84 -99 -136 -150 -136c-67 0 -90 102 -133 102c-27 0 -57 -37 -94 -95l-40 23c49 85 100 133 150 133c67 0 90 -103 133 -103z" />
    <glyph glyph-name="macron" unicode="&#xaf;" 
d="M449 673l-13 -66h-330l13 66h330z" />
    <glyph glyph-name="dieresis" unicode="&#xa8;" 
d="M418 573l-81 -1l31 132l90 2zM203 571l-81 -1l32 132l89 1z" />
    <glyph glyph-name="dotaccent" unicode="&#x2d9;" 
d="M301 572l-82 -1l32 132l91 1z" />
    <glyph glyph-name="ring" unicode="&#x2da;" 
d="M349 757c74 0 125 -44 125 -98c0 -60 -59 -112 -140 -112c-74 0 -125 44 -125 99c0 61 59 111 140 111z" />
    <glyph glyph-name="commaaccent.rot" 
d="M357 753c-45 -69 -49 -131 -39 -189l-101 -2c3 69 38 144 108 206z" />
    <glyph glyph-name="commaaccent" unicode="&#x326;" 
d="M183 -259c44 68 48 130 38 188l102 3c-3 -70 -39 -144 -109 -207z" />
    <glyph glyph-name="cedilla" unicode="&#xb8;" 
d="M146 -147l-42 13c42 102 90 149 147 149c67 0 119 -59 111 -188l-70 -2c6 95 -16 132 -50 132c-33 0 -64 -39 -96 -104z" />
    <glyph glyph-name="ogonek" unicode="&#x2db;" 
d="M376 33l24 -32c-132 -43 -185 -85 -185 -119c0 -33 41 -51 145 -12l10 -37c-149 -76 -228 -35 -228 26c0 54 67 116 234 174z" />
    <glyph glyph-name="underscore.alt" 
d="M511 -50l-12 -62h-569l11 62h570z" />
    </font>
</defs>
</svg>
