<svg version="1.1" xmlns="http://www.w3.org/2000/svg">
	<defs>
		<symbol id="linkedin-icon" viewBox="0 0 12 11.5">
		    <path d="M1.4,2.7h0A1.3,1.3,0,0,1,0,1.3,1.3,1.3,0,0,1,1.5,0,1.3,1.3,0,0,1,2.9,1.3,1.3,1.3,0,0,1,1.4,2.7Zm1.3,8.8H0.1V3.7H2.7v7.7Zm9.3,0H9.4V7.3c0-1-.4-1.7-1.3-1.7a1.4,1.4,0,0,0-1.3.9,1.9,1.9,0,0,0-.1.6v4.3H4.1c0-7,0-7.7,0-7.7H6.7V4.9h0A2.6,2.6,0,0,1,9,3.5c1.7,0,3,1.1,3,3.5v4.4Z" />
		</symbol>

		<symbol id="github-icon" viewBox="0 0 12 10.2">
		    <path d="M11.6,8c-1,1.9-3.6,2.1-5.4,2.1S1.4,10,.4,8A5.3,5.3,0,0,1,0,5.7,4.3,4.3,0,0,1,1,2.8,4,4,0,0,1,.8,1.6,3.5,3.5,0,0,1,1.2,0,4.2,4.2,0,0,1,3.9,1.2l2.2-.3,2,0.2A4.1,4.1,0,0,1,10.8,0a3.5,3.5,0,0,1,.4,1.6A3.8,3.8,0,0,1,11,2.8a4.3,4.3,0,0,1,1,2.9A5.4,5.4,0,0,1,11.6,8Zm-3-3.2L7.1,5H4.9L3.5,4.8A1.9,1.9,0,0,0,1.6,6.9c0,2.2,2,2.5,3.8,2.5H6.6c1.8,0,3.8-.3,3.8-2.5A1.9,1.9,0,0,0,8.5,4.8ZM3.7,8.3a1.3,1.3,0,0,1-.9-1.4,1.3,1.3,0,0,1,.9-1.4,1.3,1.3,0,0,1,.9,1.4A1.3,1.3,0,0,1,3.7,8.3Zm4.6,0a1.3,1.3,0,0,1-.9-1.4,1.3,1.3,0,0,1,.9-1.4,1.3,1.3,0,0,1,.9,1.4A1.3,1.3,0,0,1,8.3,8.3Z" />
		</symbol>

		<symbol id="stack-overflow-icon" viewBox="0 0 12 14.2">
		    <path d="M10.1,12.9V9.1h1.3v5.1H0V9.1H1.3v3.8h8.9ZM2.5,11.7H8.9V10.4H2.5v1.3ZM2.7,8.8l6.2,1.3L9.1,8.8,2.9,7.5Zm0.8-3L9.2,8.5,9.8,7.3,4,4.7ZM5.1,3L9.9,7.1l0.8-1L5.9,2ZM8.2,0l-1,.8L11,5.8l1-.8Z" />
		</symbol>

		<symbol id="email-icon" viewBox="0 0 12 9.4">
		    <path d="M12,8.4a1.1,1.1,0,0,1-1.1,1.1H1.1A1.1,1.1,0,0,1,0,8.4V1.1A1.1,1.1,0,0,1,1.1,0h9.9A1.1,1.1,0,0,1,12,1.1V8.4ZM10.9,0.9H1.1a0.2,0.2,0,0,0-.2.2A2.4,2.4,0,0,0,1.8,3L4.5,5.1A3.3,3.3,0,0,0,6,6H6a3.3,3.3,0,0,0,1.5-.9L10.2,3a2.6,2.6,0,0,0,1-1.7C11.1,1.2,11.2.9,10.9,0.9Zm0.2,2.4-0.5.4L7.8,5.9A3.1,3.1,0,0,1,6,6.9H6a3.1,3.1,0,0,1-1.8-.9L1.3,3.7,0.9,3.2V8.4a0.2,0.2,0,0,0,.2.2h9.9a0.2,0.2,0,0,0,.2-0.2V3.2Z" />
		</symbol>

		<symbol id="rss-icon" viewBox="0 0 12 12">
		    <path d="M11.8,11.8l-0.4.2H10.2a0.5,0.5,0,0,1-.5-0.5A9.8,9.8,0,0,0,.5,2.3,0.5,0.5,0,0,1,0,1.8V0.5A0.5,0.5,0,0,1,.2.2L0.5,0h0A12,12,0,0,1,8.5,3.5,12,12,0,0,1,12,11.4,0.5,0.5,0,0,1,11.8,11.8Zm-4.4,0L7.1,12H5.9a0.5,0.5,0,0,1-.5-0.5A5.5,5.5,0,0,0,.5,6.6,0.5,0.5,0,0,1,0,6.1V4.9A0.5,0.5,0,0,1,.2,4.5H0.6A7.7,7.7,0,0,1,5.4,6.6a7.7,7.7,0,0,1,2.2,4.8A0.6,0.6,0,0,1,7.5,11.8ZM1.6,12a1.6,1.6,0,1,1,1.6-1.6A1.6,1.6,0,0,1,1.6,12Z" />
		</symbol>
	</defs>
</svg>